<?xml version="1.0" encoding="UTF-8"?>
<!DOCTYPE svg PUBLIC "-//W3C//DTD SVG 1.1//EN" "http://www.w3.org/Graphics/SVG/1.1/DTD/svg11.dtd">
<!-- Creator: CorelDRAW 2017 -->
<svg xmlns="http://www.w3.org/2000/svg" xml:space="preserve" width="54mm" height="23mm" version="1.1" style="shape-rendering:geometricPrecision; text-rendering:geometricPrecision; image-rendering:optimizeQuality; fill-rule:evenodd; clip-rule:evenodd"
viewBox="0 0 5400 2300"
 xmlns:xlink="http://www.w3.org/1999/xlink">
 <defs>
  <style type="text/css">
   <![CDATA[
    .str0 {stroke:#FEFEFE;stroke-width:80}
    .fil1 {fill:none}
    .fil3 {fill:#FEFEFE}
    .fil2 {fill:#E31E24}
    .fil0 {fill:#0075BD}
   ]]>
  </style>
 </defs>
 <g id="Слой_x0020_1">
  <metadata id="CorelCorpID_0Corel-Layer"/>
  <path class="fil0" d="M469 1869c1257,-370 3008,701 4450,-31 8,-4 261,-125 270,-130l0 -1367c-14,7 -272,96 -286,103 -1439,716 -3180,-309 -4432,58l-2 1368z"/>
  <path class="fil1 str0" d="M469 1869c1257,-370 3008,701 4450,-31 8,-4 261,-125 270,-130l0 -1367c-14,7 -272,96 -286,103 -1439,716 -3180,-309 -4432,58l-2 1368"/>
  <path class="fil2" d="M200 1758c1273,-647 3194,626 4749,-188l0 -1367c-1555,814 -3476,-459 -4749,188l0 1367z"/>
  <path class="fil1 str0" d="M200 1758c1273,-647 3194,626 4749,-188l0 -1367c-1555,814 -3476,-459 -4749,188l0 1367"/>
  <path class="fil3" d="M1680 816c79,-18 158,-37 236,-56 0,21 0,41 0,62 12,12 40,-7 84,-59 41,57 87,66 136,28 82,-48 153,-59 196,13 108,-67 207,-76 291,0 286,-107 290,-3 276,106 -12,91 -28,181 -47,271 -25,119 54,90 152,40 -8,-96 17,-193 56,-290 79,-177 196,-181 323,-137 46,-5 91,-10 137,-16 -20,132 -40,264 -59,396 -27,133 74,69 168,16 17,-91 33,-183 50,-274 8,-39 1,-57 -22,-56 -12,2 -23,4 -35,6 -1,-17 -2,-33 -3,-50 78,-16 155,-31 233,-47 0,9 0,17 0,25 173,-69 319,-100 270,140 -10,64 -21,128 -31,193 -42,170 43,125 129,77l66 -288c9,-39 1,-57 -22,-56 -12,2 -22,4 -34,6 -1,-17 -2,-33 -3,-50 78,-16 155,-31 233,-47 0,9 0,17 0,25 165,-62 302,-87 270,140 -10,64 -21,128 -31,193 -44,183 -17,168 76,116 -33,135 -286,137 -264,-14 15,-81 37,-187 51,-267 40,-169 -130,-130 -146,37 -18,113 -37,226 -56,340 -52,5 -105,10 -158,16 0,-22 2,-44 3,-67 -155,62 -330,160 -294,-83 14,-81 29,-162 44,-242 40,-169 -102,-136 -146,37 -18,113 -37,226 -56,340 -53,5 -105,10 -158,16 0,-28 3,-56 3,-84 -140,113 -239,107 -317,47 -155,82 -230,45 -267,-47 -162,54 -399,211 -341,-34 20,-109 41,-216 59,-326 12,-75 -120,-101 -140,31 -28,135 -55,269 -84,405 -48,2 -97,4 -146,6 26,-144 52,-289 78,-433 1,-138 -129,-53 -131,59 -25,121 -50,242 -74,364 -53,2 -106,5 -158,6 28,-145 56,-291 84,-436 6,-57 -12,-66 -52,-28 -64,54 -118,65 -159,31 -37,-32 -59,-21 -65,35 -25,131 -50,261 -74,392 -48,0 -96,0 -143,0 26,-145 54,-290 81,-436 -6,-16 -13,-31 -18,-47 -15,1 -29,2 -44,3 -2,-16 -4,-31 -6,-47l0 0zm1542 447c37,0 83,-94 105,-210 21,-115 7,-210 -29,-210 -37,0 -84,94 -105,210 -21,115 -8,210 29,210l0 0zm-2119 -562c2,-18 4,-37 6,-56 82,-14 163,-29 245,-44 -7,66 -14,131 -22,196 145,-59 269,-91 254,65 -28,158 -56,315 -83,473 -51,1 -101,2 -152,3 21,-136 43,-272 65,-408 41,-129 -112,-100 -124,16 -25,130 -50,260 -74,389 -55,1 -110,2 -165,3 36,-212 73,-406 109,-617 4,-16 -14,-18 -22,-19 -12,-2 -25,-2 -37,-2l0 0zm-134 -118c21,-1 41,-2 62,-3 -5,33 -10,67 -16,100 -230,-97 -394,164 -112,184 -4,24 -8,48 -13,72 -147,-2 -279,20 -292,208 20,134 209,222 298,-3 22,0 44,0 65,0 -61,195 -193,268 -397,218 -245,-48 -204,-453 59,-479 -77,-142 -48,-260 102,-296 89,-22 164,14 223,43 6,-14 12,-29 18,-43l0 0z"/>
 </g>
</svg>
