<?xml version="1.0" encoding="UTF-8"?>
<!DOCTYPE svg PUBLIC "-//W3C//DTD SVG 1.1//EN" "http://www.w3.org/Graphics/SVG/1.1/DTD/svg11.dtd">
<!-- Creator: CorelDRAW 2017 -->
<svg xmlns="http://www.w3.org/2000/svg" xml:space="preserve" width="190mm" height="86mm" version="1.1" style="shape-rendering:geometricPrecision; text-rendering:geometricPrecision; image-rendering:optimizeQuality; fill-rule:evenodd; clip-rule:evenodd"
viewBox="0 0 19000 8600"
 xmlns:xlink="http://www.w3.org/1999/xlink">
 <defs>
  <style type="text/css">
   <![CDATA[
    .fil1 {fill:#679966}
    .fil0 {fill:#868686}
    .fil2 {fill:#CC3467}
    .fil3 {fill:#868686;fill-rule:nonzero}
   ]]>
  </style>
 </defs>
 <g id="Layer_x0020_1">
  <metadata id="CorelCorpID_0Corel-Layer"/>
  <g id="_970061952">
   <g>
    <path class="fil0" d="M6114 4381l0 1649 -1118 0 0 -3942 1984 0c480,0 651,465 651,727 0,263 0,823 0,823 0,217 -171,354 -297,377 309,57 320,263 320,480l0 1520 -1131 0 0 -1371c0,-240 -114,-274 -297,-274l-112 11zm0 -1615l0 941c0,0 55,11 169,0 114,-11 240,-206 229,-480 -11,-274 -69,-461 -183,-461 -114,0 -215,0 -215,0z"/>
    <polygon class="fil0" points="11782,2088 11782,3718 11368,3718 11368,2088 10251,2088 10251,6030 11368,6030 11368,4381 11782,4381 11782,6030 12900,6030 12900,2088 "/>
    <path class="fil0" d="M13779 2088l2171 0 0 3942 -1118 0 0 -1649 -413 0 0 1649 -1118 0 0 -3260c0,-206 58,-682 478,-682zm640 1002l0 628 413 0 0 -926c0,0 -413,-126 -413,297z"/>
    <polygon class="fil0" points="9894,5364 9161,5364 9161,4381 9894,4381 9894,3718 9161,3718 9161,2751 9894,2751 9894,2088 8043,2088 8043,6030 9161,6030 9161,6027 9894,6027 "/>
    <path class="fil0" d="M16352 5147l0 -3059 1118 0 0 3001c0,0 -23,320 206,320 229,0 206,-320 206,-320l0 -3001 1118 0 0 3059c0,857 -387,914 -1324,914 -937,0 -1324,-80 -1324,-914zm1767 -2577c0,182 145,318 319,318 172,0 317,-136 317,-318 0,-178 -145,-314 -317,-314 -173,0 -319,136 -319,314zm57 0c0,-151 113,-268 261,-268 146,0 259,117 259,268 0,155 -113,271 -259,271 -148,0 -261,-117 -261,-271zm138 186l57 0 0 -159 61 0 101 159 62 0 -106 -163c55,-6 97,-34 97,-101 0,-71 -41,-106 -129,-106l-143 0 0 369zm57 -323l76 0c39,0 81,8 81,57 0,58 -46,61 -97,61l-60 0 0 -118z"/>
   </g>
   <path class="fil0" d="M1679 143c0,0 1296,-404 1892,152 596,556 404,1754 404,1754 0,0 -368,-632 -942,-1134 -574,-502 -1354,-773 -1354,-773z"/>
   <path class="fil1" d="M823 3226c0,0 -989,-930 -798,-1722 191,-792 1329,-1215 1329,-1215 0,0 -369,631 -524,1378 -155,747 -7,1559 -7,1559z"/>
   <path class="fil2" d="M3868 2425c0,0 -306,1323 -1087,1556 -781,233 -1718,-538 -1718,-538 0,0 731,1 1454,-240 723,-242 1351,-778 1351,-778z"/>
   <path class="fil3" d="M3569 7079l116 0 0 679c0,118 -10,212 -30,282 -20,69 -56,126 -108,169 -52,44 -120,65 -204,65 -82,0 -149,-19 -201,-57 -52,-38 -89,-93 -111,-165 -22,-72 -33,-170 -33,-295l0 -679 116 0 0 679c0,102 7,178 21,226 14,48 38,86 73,112 34,26 76,39 126,39 85,0 145,-26 181,-78 36,-52 54,-152 54,-299l0 -679zm336 1176l0 -852 97 0 0 121c46,-93 114,-139 201,-139 38,0 73,9 105,28 32,18 56,43 72,73 16,30 27,65 33,106 4,27 6,74 6,140l0 523 -108 0 0 -518c0,-59 -4,-103 -12,-132 -8,-29 -23,-52 -44,-70 -21,-17 -46,-26 -75,-26 -46,0 -85,19 -118,59 -33,39 -50,113 -50,222l0 465 -108 0zm717 0l0 -1176 108 0 0 1176 -108 0zm314 -1012l0 -164 108 0 0 164 -108 0zm0 1012l0 -852 108 0 0 852 -108 0zm312 0l0 -852 97 0 0 120c20,-42 46,-75 79,-100 33,-25 70,-38 113,-38 47,0 85,13 115,39 30,26 51,63 63,110 51,-99 116,-149 197,-149 63,0 112,23 146,70 34,47 51,119 51,216l0 584 -108 0 0 -536c0,-57 -4,-99 -11,-125 -7,-25 -20,-46 -38,-61 -18,-16 -40,-23 -65,-23 -45,0 -82,20 -111,60 -30,40 -44,104 -44,191l0 495 -108 0 0 -553c0,-64 -9,-112 -26,-144 -18,-32 -46,-48 -86,-48 -30,0 -58,11 -84,32 -26,21 -44,53 -56,94 -11,41 -17,100 -17,178l0 442 -108 0zm1058 -1012l0 -164 108 0 0 164 -108 0zm0 1012l0 -852 108 0 0 852 -108 0zm545 -129l15 128c-30,8 -57,13 -81,13 -39,0 -69,-8 -91,-25 -21,-17 -36,-38 -45,-65 -9,-27 -13,-84 -13,-171l0 -491 -79 0 0 -112 79 0 0 -211 108 -87 0 298 108 0 0 112 -108 0 0 499c0,41 2,68 6,80 4,12 10,21 18,28 9,7 21,10 37,10 12,0 27,-2 47,-6zm579 -147l111 20c-17,87 -50,154 -97,202 -47,48 -108,72 -181,72 -92,0 -166,-38 -220,-115 -54,-76 -81,-184 -81,-322 0,-143 27,-254 82,-333 55,-79 126,-119 213,-119 85,0 154,39 207,116 54,77 80,186 80,327 0,8 0,21 -1,38l-472 0c4,93 24,165 59,215 35,50 79,74 132,74 39,0 73,-14 101,-42 28,-28 50,-73 66,-134zm-352 -232l353 0c-5,-72 -18,-125 -41,-161 -34,-56 -78,-83 -133,-83 -49,0 -91,22 -124,67 -33,44 -52,104 -56,178zm1049 507l0 -108c-40,84 -99,126 -177,126 -51,0 -97,-19 -139,-56 -42,-37 -75,-90 -99,-156 -23,-67 -35,-144 -35,-231 0,-85 11,-162 32,-231 21,-69 53,-122 95,-159 42,-37 89,-55 141,-55 38,0 72,11 102,33 30,22 54,50 73,85l0 -423 108 0 0 1176 -100 0zm-340 -425c0,109 17,190 52,244 34,54 75,81 121,81 47,0 87,-26 120,-77 33,-51 49,-130 49,-236 0,-116 -17,-201 -50,-256 -33,-54 -75,-82 -124,-82 -48,0 -88,26 -120,78 -32,52 -48,135 -48,247zm935 425l0 -1176 330 0c58,0 102,4 133,11 43,10 79,28 108,55 29,27 53,65 70,113 18,48 26,102 26,160 0,100 -24,184 -71,253 -47,69 -133,104 -257,104l-224 0 0 480 -116 0zm116 -617l226 0c75,0 128,-19 159,-56 31,-38 47,-90 47,-158 0,-49 -9,-91 -28,-126 -19,-35 -43,-58 -73,-70 -20,-7 -56,-10 -108,-10l-224 0 0 420zm686 191c0,-157 33,-274 98,-350 54,-63 121,-94 199,-94 87,0 158,38 214,115 55,76 83,182 83,317 0,109 -12,195 -37,258 -24,63 -60,111 -107,146 -47,35 -98,52 -153,52 -89,0 -160,-38 -215,-114 -55,-76 -82,-186 -82,-330zm110 0c0,109 18,191 53,244 36,54 80,81 134,81 53,0 98,-27 133,-82 35,-54 53,-137 53,-249 0,-105 -18,-185 -54,-239 -36,-54 -80,-81 -133,-81 -54,0 -99,27 -134,81 -35,54 -53,135 -53,244zm648 426l0 -1176 108 0 0 1176 -108 0zm309 328l-12 -134c24,8 44,13 61,13 24,0 43,-5 57,-16 14,-11 26,-26 35,-45 7,-15 18,-50 33,-108 2,-8 5,-20 10,-35l-241 -855 115 0 132 492c17,62 33,128 46,197 12,-65 27,-129 44,-192l135 -497 107 0 -240 867c-26,93 -46,157 -60,193 -19,47 -41,82 -66,104 -25,22 -54,33 -89,33 -21,0 -44,-6 -69,-17zm656 -328l0 -852 97 0 0 120c20,-42 46,-75 79,-100 33,-25 70,-38 113,-38 47,0 85,13 115,39 30,26 51,63 63,110 51,-99 116,-149 197,-149 63,0 112,23 146,70 34,47 51,119 51,216l0 584 -108 0 0 -536c0,-57 -4,-99 -11,-125 -7,-25 -20,-46 -38,-61 -18,-16 -40,-23 -65,-23 -45,0 -82,20 -111,60 -30,40 -44,104 -44,191l0 495 -108 0 0 -553c0,-64 -9,-112 -26,-144 -18,-32 -46,-48 -86,-48 -30,0 -58,11 -84,32 -26,21 -44,53 -56,94 -11,41 -17,100 -17,178l0 442 -108 0zm1491 -276l111 20c-17,87 -50,154 -97,202 -47,48 -108,72 -181,72 -92,0 -166,-38 -220,-115 -54,-76 -81,-184 -81,-322 0,-143 27,-254 82,-333 55,-79 126,-119 213,-119 85,0 154,39 207,116 54,77 80,186 80,327 0,8 0,21 -1,38l-472 0c4,93 24,165 59,215 35,50 79,74 132,74 39,0 73,-14 101,-42 28,-28 50,-73 66,-134zm-352 -232l353 0c-5,-72 -18,-125 -41,-161 -34,-56 -78,-83 -133,-83 -49,0 -91,22 -124,67 -33,44 -52,104 -56,178zm638 507l0 -852 97 0 0 131c25,-60 47,-100 68,-120 21,-19 44,-29 69,-29 36,0 73,15 111,46l-38 133c-26,-20 -52,-30 -78,-30 -23,0 -44,10 -63,28 -19,19 -32,45 -40,79 -12,51 -18,107 -18,168l0 445 -108 0zm696 -378l109 -13c5,59 17,108 36,146 19,38 48,68 88,92 40,23 85,35 134,35 44,0 83,-9 117,-27 34,-18 59,-42 75,-73 16,-31 25,-65 25,-101 0,-37 -8,-69 -24,-96 -16,-27 -42,-50 -79,-69 -23,-12 -75,-31 -156,-57 -80,-26 -137,-50 -169,-73 -42,-30 -73,-66 -93,-110 -21,-44 -31,-93 -31,-146 0,-60 13,-115 38,-167 25,-52 62,-91 110,-118 48,-27 102,-40 160,-40 65,0 122,14 171,42 49,28 88,69 114,124 27,54 41,116 43,185l-111 11c-6,-74 -26,-130 -60,-168 -34,-38 -85,-57 -153,-57 -70,0 -121,17 -153,52 -32,34 -48,76 -48,125 0,42 11,77 34,104 22,27 80,55 175,84 94,29 159,54 194,75 51,31 88,71 113,120 24,48 36,104 36,167 0,63 -13,121 -40,177 -27,55 -65,98 -115,129 -50,31 -106,46 -168,46 -79,0 -145,-16 -199,-47 -54,-31 -95,-77 -126,-140 -31,-62 -46,-132 -48,-211zm839 -48c0,-157 33,-274 98,-350 54,-63 121,-94 199,-94 87,0 158,38 214,115 55,76 83,182 83,317 0,109 -12,195 -37,258 -24,63 -60,111 -107,146 -47,35 -98,52 -153,52 -89,0 -160,-38 -215,-114 -55,-76 -82,-186 -82,-330zm110 0c0,109 18,191 53,244 36,54 80,81 134,81 53,0 98,-27 133,-82 35,-54 53,-137 53,-249 0,-105 -18,-185 -54,-239 -36,-54 -80,-81 -133,-81 -54,0 -99,27 -134,81 -35,54 -53,135 -53,244zm648 426l0 -1176 108 0 0 1176 -108 0zm728 0l0 -127c-49,97 -116,145 -201,145 -37,0 -72,-10 -104,-29 -32,-19 -56,-44 -72,-73 -16,-29 -27,-65 -33,-107 -4,-28 -7,-73 -7,-135l0 -527 108 0 0 472c0,75 2,126 7,152 7,38 21,68 43,89 22,22 49,33 81,33 32,0 62,-11 90,-33 28,-22 48,-53 60,-91 12,-38 18,-94 18,-166l0 -456 108 0 0 852 -97 0zm539 -129l15 128c-30,8 -57,13 -81,13 -39,0 -69,-8 -91,-25 -21,-17 -36,-38 -45,-65 -9,-27 -13,-84 -13,-171l0 -491 -79 0 0 -112 79 0 0 -211 108 -87 0 298 108 0 0 112 -108 0 0 499c0,41 2,68 6,80 4,12 10,21 18,28 9,7 21,10 37,10 12,0 27,-2 47,-6zm146 -883l0 -164 108 0 0 164 -108 0zm0 1012l0 -852 108 0 0 852 -108 0zm272 -426c0,-157 33,-274 98,-350 54,-63 121,-94 199,-94 87,0 158,38 214,115 55,76 83,182 83,317 0,109 -12,195 -37,258 -24,63 -60,111 -107,146 -47,35 -98,52 -153,52 -89,0 -160,-38 -215,-114 -55,-76 -82,-186 -82,-330zm110 0c0,109 18,191 53,244 36,54 80,81 134,81 53,0 98,-27 133,-82 35,-54 53,-137 53,-249 0,-105 -18,-185 -54,-239 -36,-54 -80,-81 -133,-81 -54,0 -99,27 -134,81 -35,54 -53,135 -53,244zm650 426l0 -852 97 0 0 121c46,-93 114,-139 201,-139 38,0 73,9 105,28 32,18 56,43 72,73 16,30 27,65 33,106 4,27 6,74 6,140l0 523 -108 0 0 -518c0,-59 -4,-103 -12,-132 -8,-29 -23,-52 -44,-70 -21,-17 -46,-26 -75,-26 -46,0 -85,19 -118,59 -33,39 -50,113 -50,222l0 465 -108 0zm677 -255l106 -23c6,57 23,101 50,132 27,30 66,46 114,46 49,0 86,-13 110,-41 24,-27 36,-59 36,-95 0,-33 -11,-58 -32,-77 -15,-13 -52,-29 -110,-49 -79,-27 -133,-50 -164,-69 -30,-20 -53,-47 -69,-81 -16,-34 -24,-72 -24,-114 0,-38 7,-73 19,-105 13,-32 31,-59 53,-80 17,-16 40,-30 68,-42 29,-12 60,-17 93,-17 50,0 93,10 131,29 38,19 65,45 83,78 18,33 30,77 37,132l-105 20c-5,-44 -19,-79 -41,-104 -23,-25 -55,-37 -97,-37 -49,0 -84,11 -105,33 -21,22 -32,48 -32,77 0,19 4,36 13,51 9,15 22,28 41,38 11,5 42,18 95,37 76,27 129,50 159,67 30,17 54,43 71,76 17,33 26,74 26,123 0,48 -10,93 -31,135 -21,42 -51,75 -90,99 -40,23 -84,35 -134,35 -82,0 -145,-23 -188,-69 -43,-46 -71,-114 -83,-204z"/>
  </g>
 </g>
</svg>
