<?xml version="1.0" encoding="UTF-8"?>
<!DOCTYPE svg PUBLIC "-//W3C//DTD SVG 1.1//EN" "http://www.w3.org/Graphics/SVG/1.1/DTD/svg11.dtd">
<!-- Creator: CorelDRAW 2017 -->
<svg xmlns="http://www.w3.org/2000/svg" xml:space="preserve" width="258mm" height="114mm" version="1.1" style="shape-rendering:geometricPrecision; text-rendering:geometricPrecision; image-rendering:optimizeQuality; fill-rule:evenodd; clip-rule:evenodd"
viewBox="0 0 25800 11400"
 xmlns:xlink="http://www.w3.org/1999/xlink">
 <defs>
  <style type="text/css">
   <![CDATA[
    .fil0 {fill:#CC323A;fill-rule:nonzero}
   ]]>
  </style>
 </defs>
 <g id="Слой_x0020_1">
  <metadata id="CorelCorpID_0Corel-Layer"/>
  <path class="fil0" d="M10589 519c3361,-783 6948,-589 10198,580 1743,620 3385,1519 4858,2639 39,29 77,59 112,94 -794,1099 -1709,2110 -2726,3007 -597,534 -1239,1017 -1901,1468 -22,20 -41,-4 -40,-26 -48,-220 -49,-446 -53,-670 0,-530 0,-1059 0,-1589 -7,-311 -67,-631 -233,-898 -176,-289 -472,-496 -798,-577 -467,-120 -986,-48 -1389,222 -157,96 -284,232 -410,364 -6,-862 -1,-1724 -2,-2586 -444,216 -943,288 -1432,290 1,21 2,43 4,64 134,15 270,75 347,189 77,117 104,258 119,394 18,223 12,447 13,670 0,1117 0,2234 0,3351 -1,218 0,437 -29,653 -24,147 -61,305 -172,412 -119,120 -296,149 -457,163 3,13 10,38 13,51 750,5 1500,2 2250,2 -2,-18 -3,-36 -4,-54 -168,-14 -354,-50 -471,-183 -117,-132 -143,-314 -163,-482 -32,-416 -14,-833 -19,-1250 -1,-430 2,-860 -2,-1289 206,-252 496,-443 821,-494 188,-26 387,-21 564,56 173,74 306,226 378,398 123,284 129,601 124,905 0,312 0,623 0,935 1,272 3,544 -24,814 -22,162 -53,339 -177,456 -94,96 -233,118 -360,137 3,12 8,37 11,49 275,7 551,-3 826,4 -125,85 -261,153 -391,231 -1319,747 -2732,1328 -4196,1718 -2941,790 -6082,818 -9037,86 -1443,-358 -2842,-894 -4152,-1596 -893,-476 -1742,-1032 -2545,-1648 82,-134 183,-254 274,-380 506,-663 1053,-1296 1646,-1883 805,-803 1684,-1532 2628,-2166 35,256 29,515 38,773 -1,1106 0,2211 -1,3317 4,171 -8,341 -9,512 -7,205 -17,415 -85,612 -43,125 -131,237 -252,295 -98,48 -207,63 -315,75 1,13 3,40 4,53 758,1 1517,-1 2275,1 -1,-19 -2,-38 -3,-56 -179,-8 -369,-64 -483,-210 -110,-150 -143,-340 -162,-521 -34,-376 -25,-753 -26,-1130 0,-1199 0,-2398 0,-3597 6,-119 9,-259 104,-346 86,-69 202,-76 308,-83 310,-6 629,46 905,194 193,103 364,255 469,449 163,291 187,642 126,965 -67,357 -282,677 -574,889 -265,196 -590,307 -920,318 1,22 2,44 4,66 40,19 80,38 113,69 166,168 286,373 424,564 73,96 124,205 185,309 215,364 427,731 665,1082 176,269 368,535 622,737 254,202 577,295 896,322 128,18 256,-1 384,-4 128,-4 255,-13 383,-18 -1,-18 -1,-36 -2,-53 -120,-8 -225,-72 -321,-140 -258,-193 -464,-443 -666,-691 -529,-676 -970,-1413 -1419,-2143 178,-86 359,-172 518,-291 247,-172 468,-388 618,-651 192,-330 248,-738 145,-1106 -62,-243 -212,-455 -394,-623 -148,-134 -310,-257 -496,-336 -292,-127 -610,-182 -925,-212 -370,-35 -741,-19 -1111,-25 4,-5 11,-16 14,-21 1542,-901 3221,-1567 4960,-1973zm10923 2015c-220,47 -419,181 -549,364 -173,241 -215,569 -105,845 127,343 479,590 846,580 291,7 575,-146 740,-384 232,-314 217,-780 -31,-1081 -206,-269 -571,-396 -901,-324zm-11010 664c-258,206 -437,516 -473,845 429,140 921,24 1263,-265 247,-207 420,-511 441,-835 -419,-133 -896,-23 -1231,255zm743 1313c-368,137 -764,177 -1154,180 0,16 0,47 0,63 118,26 241,64 327,154 99,92 137,228 161,356 29,204 22,410 23,616 0,341 0,682 0,1023 -5,394 14,788 -21,1181 -18,164 -51,339 -164,467 -121,130 -306,167 -476,179 -1,18 -1,36 -1,55 755,0 1510,0 2264,0 -1,-18 -2,-36 -2,-54 -165,-12 -345,-46 -465,-170 -116,-122 -146,-295 -167,-456 -27,-264 -20,-530 -21,-796 -1,-978 1,-1955 -1,-2932 -100,48 -200,95 -303,134zm2616 191c-528,278 -899,803 -1059,1371 -126,435 -141,905 -21,1344 106,411 344,796 668,1072 507,426 1261,515 1861,241 337,-156 611,-439 763,-777 42,-102 92,-204 102,-316 -26,-4 -59,-18 -75,11 -335,356 -845,539 -1329,468 -320,-40 -617,-215 -814,-469 -216,-279 -333,-626 -371,-974 -38,-401 26,-815 198,-1180 110,-236 266,-462 488,-605 259,-170 659,-121 837,144 136,180 167,412 274,608 42,81 111,152 200,178 108,19 228,8 318,-59 104,-69 165,-194 168,-317 15,-192 -69,-381 -199,-519 -183,-195 -435,-311 -691,-376 -438,-109 -918,-60 -1317,156zm7763 -2051c312,-38 632,141 770,422 103,207 111,462 11,672 -132,291 -457,481 -775,445 -313,-25 -595,-264 -673,-567 -73,-260 4,-554 196,-744 125,-127 294,-208 472,-227zm-434 261c15,4 30,8 44,12 68,18 92,89 91,154 4,199 1,398 1,597 -3,74 -4,161 -62,215 -24,30 -46,-3 -79,41 59,-2 119,1 178,1 90,1 179,2 269,-2 -40,-20 -85,-37 -106,-79 -27,-55 -30,-117 -31,-177 0,-206 0,-412 0,-618 2,-31 -6,-75 29,-91 88,-17 193,-6 255,65 60,84 64,203 17,294 -37,67 -114,95 -186,103 95,141 167,300 283,427 80,91 208,79 317,78 0,-3 0,-10 0,-14 -47,-25 -92,-53 -128,-92 -107,-118 -189,-256 -269,-393 33,-19 68,-38 99,-61 115,-89 135,-277 34,-383 -77,-78 -195,-83 -298,-83 -153,2 -306,-6 -459,5z"/>
 </g>
</svg>
