<?xml version="1.0" encoding="UTF-8"?>
<!DOCTYPE svg PUBLIC "-//W3C//DTD SVG 1.1//EN" "http://www.w3.org/Graphics/SVG/1.1/DTD/svg11.dtd">
<!-- Creator: CorelDRAW 2017 -->
<svg xmlns="http://www.w3.org/2000/svg" xml:space="preserve" width="172mm" height="26mm" version="1.1" style="shape-rendering:geometricPrecision; text-rendering:geometricPrecision; image-rendering:optimizeQuality; fill-rule:evenodd; clip-rule:evenodd"
viewBox="0 0 17200 2600"
 xmlns:xlink="http://www.w3.org/1999/xlink">
 <defs>
  <style type="text/css">
   <![CDATA[
    .fil0 {fill:#0057A4}
   ]]>
  </style>
 </defs>
 <g id="Слой_x0020_1">
  <metadata id="CorelCorpID_0Corel-Layer"/>
  <path class="fil0" d="M9413 1254c0,0 -167,-103 -270,-143 0,0 -320,-148 -383,-219 0,0 -124,-117 -52,-254 0,0 31,-89 162,-89 0,0 171,9 171,150l0 199 614 0 -1 -293c0,0 47,-479 -724,-500 0,0 -606,-40 -780,287 0,0 -68,73 -68,327l0 183c0,0 -7,211 101,348 0,0 61,89 212,188 0,0 305,164 489,259 0,0 185,106 161,274 0,0 -15,172 -194,166 0,0 -163,-8 -163,-177l0 -199 -655 0 0 289c0,0 -18,552 823,552l1 0 13 0c107,-1 793,-29 827,-566l0 -235c0,0 28,-357 -284,-545l0 0zm-8034 0c0,0 -167,-103 -270,-143 0,0 -320,-148 -383,-219 0,0 -125,-118 -52,-254 0,0 30,-89 162,-89 0,0 171,9 171,150l0 199 614 0 -1 -293c0,0 47,-479 -724,-500 0,0 -58,-4 -143,0 0,0 -467,25 -634,281 -1,2 -2,3 -3,5 0,0 -68,73 -68,327l0 183c0,0 -7,211 101,348 0,0 61,89 211,188 0,0 305,164 489,258 0,0 185,106 161,274 0,0 -15,172 -194,166 0,0 -163,-8 -163,-177l0 -199 -655 0 0 289 0 2 0 2c0,47 21,548 823,548l1 0 13 0c107,-1 793,-29 827,-566l0 -235c0,0 28,-357 -284,-545l0 0zm10070 681c0,0 9,193 -170,193 0,0 -188,10 -188,-188l-2 -1764 -667 0 0 1750c0,0 -69,662 866,662 0,0 813,10 813,-632l0 -1781 -652 0 0 1760zm2885 -334l-27 0 -625 -1427 -747 0 0 2345 608 0 -36 -1427 27 0 647 1427 725 0 0 -2346 -616 0 44 1427 0 0zm2041 -380l0 344 168 0 0 370c0,181 -154,184 -154,184 -188,0 -181,-172 -181,-172l0 -1278c0,-132 167,-139 167,-139 160,0 161,157 161,157l0 194 616 0c20,-379 -55,-471 -55,-471 -153,-343 -731,-324 -731,-324 -888,0 -790,681 -790,681l0 1236c19,639 894,574 909,573 389,-43 507,-167 507,-167 108,-80 136,-192 136,-192 31,-65 39,-271 39,-271l0 -726 -791 0 0 0zm-13723 -1038l-404 2333 654 0 239 -1809 54 0 239 1809 654 0 -404 -2333 -1032 0 0 0zm3616 -10l-206 1289 -48 0 -196 -1277 -1026 0 -51 2334 608 0 7 -1759 48 0 322 1758 639 0 318 -1758 42 0 15 1758 611 0 -66 -2346 -1016 0 0 0z"/>
 </g>
</svg>
