<?xml version="1.0" encoding="UTF-8"?>
<!DOCTYPE svg PUBLIC "-//W3C//DTD SVG 1.1//EN" "http://www.w3.org/Graphics/SVG/1.1/DTD/svg11.dtd">
<!-- Creator: CorelDRAW X7 -->
<svg xmlns="http://www.w3.org/2000/svg" xml:space="preserve" width="22px" height="22px" version="1.1" style="shape-rendering:geometricPrecision; text-rendering:geometricPrecision; image-rendering:optimizeQuality; fill-rule:evenodd; clip-rule:evenodd"
viewBox="0 0 2200 2200"
 xmlns:xlink="http://www.w3.org/1999/xlink">
 <defs>
  <style type="text/css">
   <![CDATA[
    .fil0 {fill:#E0E0E0}
   ]]>
  </style>
 </defs>
 <g id="Слой_x0020_1">
  <metadata id="CorelCorpID_0Corel-Layer"/>
  <path class="fil0" d="M2200 0c0,733 0,1467 0,2200 -733,0 -1467,0 -2200,0 0,-733 0,-1467 0,-2200 733,0 1467,0 2200,0zm-1500 1600l200 0 0 -200 200 0 0 -200 200 0 0 -200 -200 0 0 -200 -200 0 0 -200 -200 0 0 -200 200 0 0 200 200 0 0 200 200 0 0 200 200 0 0 200 -200 0 0 200 -200 0 0 200 -200 0 0 200 -200 0 0 -200zm-500 -1400l0 1800 1800 0 0 -1800 -1800 0z"/>
 </g>
</svg>
