<svg xmlns="http://www.w3.org/2000/svg" viewBox="0 0 75 75"><defs><style>.cls-1{fill:#28d9cd;}</style></defs><title>17</title><g id="_13" data-name="13"><path class="cls-1" d="M50.42,21.42a1,1,0,0,1-.81-.41,1,1,0,0,1,.23-1.4l5.8-4.13L41.81,5.61,28,15.48l5.49,3.92A1,1,0,1,1,32.32,21l-6.63-4.73a1,1,0,0,1-.42-.81,1,1,0,0,1,.42-.81L41.23,3.58a1,1,0,0,1,1.16,0L57.93,14.67a1,1,0,0,1,.42.81,1,1,0,0,1-.42.81L51,21.24A1,1,0,0,1,50.42,21.42Z"/><path class="cls-1" d="M41.81,27.57a1,1,0,0,1-.58-.19L32.32,21a1,1,0,0,1-.42-.81V13.46a1,1,0,0,1,1-1H50.42a1,1,0,0,1,1,1v7a1,1,0,0,1-.42.81l-8.61,6.14A1,1,0,0,1,41.81,27.57Zm-7.92-7.88,7.92,5.65,7.61-5.43V14.45H33.89Z"/><path class="cls-1" d="M68.44,43.79a4.4,4.4,0,0,1-.62,0,5.82,5.82,0,0,1-3.95-2.14l-3.57-4.4a1,1,0,0,1-.22-.63v-7.2a1,1,0,0,1,.49-.86,1,1,0,0,1,1,0,5.8,5.8,0,0,1,1.67,1.4h0l9.05,11.15a1,1,0,0,1-.15,1.4A5.81,5.81,0,0,1,68.44,43.79Zm-6.37-7.56,3.35,4.13A3.89,3.89,0,0,0,70,41.45l-7.95-9.79Z"/><path class="cls-1" d="M32.29,71.61a7,7,0,1,1,2.6-13.53h0a7,7,0,0,1-2.6,13.53Zm0-12a4.93,4.93,0,0,0-1.86.36,5,5,0,1,0,1.86-.36Z"/><path class="cls-1" d="M50.36,71.46A7,7,0,1,1,53,57.93h0a7,7,0,0,1-2.6,13.53Zm0-12a5,5,0,1,0,1.86.36h0A5,5,0,0,0,50.36,59.42Z"/><path class="cls-1" d="M50.36,68.13a3.55,3.55,0,0,1-3.55-3.54,1,1,0,0,1,2,0,1.55,1.55,0,1,0,2.12-1.43,1.53,1.53,0,0,0-1.15,0,1,1,0,0,1-1.29-.56A1,1,0,0,1,49,61.31a3.54,3.54,0,1,1,1.32,6.82Z"/><path class="cls-1" d="M32.29,68.13a3.54,3.54,0,0,1-3.54-3.54,1,1,0,0,1,2,0,1.55,1.55,0,1,0,2.12-1.43,1.53,1.53,0,0,0-1.15,0,1,1,0,0,1-1.29-.56A1,1,0,0,1,31,61.31a3.54,3.54,0,1,1,1.32,6.82Z"/><path class="cls-1" d="M30.05,60a1,1,0,0,1-1-1V50.47a1,1,0,0,1,1-1h4.47a1,1,0,0,1,1,1V59a1,1,0,0,1-.44.83,1,1,0,0,1-.93.1,5,5,0,0,0-3.72,0A1,1,0,0,1,30.05,60Zm2.24-2.42a6.39,6.39,0,0,1,1.23.11V51.47H31.05v6.22A6.43,6.43,0,0,1,32.29,57.58Z"/><path class="cls-1" d="M52.59,59.85a.94.94,0,0,1-.37-.07,5,5,0,0,0-3.73,0,1,1,0,0,1-.93-.1,1,1,0,0,1-.43-.83V50.47a1,1,0,0,1,1-1h4.47a1,1,0,0,1,1,1v8.38a1,1,0,0,1-.43.83A1,1,0,0,1,52.59,59.85Zm-3.47-8.38v6.06a7.32,7.32,0,0,1,2.47,0V51.47Z"/><path class="cls-1" d="M52.59,51.47H30.05a8.32,8.32,0,0,1-8.3-8.31V34.52L16,27.18l-2.9,2.29a6.52,6.52,0,0,1-9.43-1.42A6.63,6.63,0,0,1,5.1,19.11l9.46-7.48L17.7,4.39a1,1,0,0,1,1.83,0l3.41,7.86,4.11,5.19a1,1,0,0,1,.21.62v16h29.1V28.48a1,1,0,0,1,1-1h1.84a2.88,2.88,0,0,1,2.88,2.88V42A9.5,9.5,0,0,1,52.59,51.47ZM16.11,24.78h.11a1,1,0,0,1,.67.37l6.64,8.39a1,1,0,0,1,.21.62v9a6.32,6.32,0,0,0,6.31,6.31H52.59A7.5,7.5,0,0,0,60.08,42V30.36a.89.89,0,0,0-.89-.89h-.84v5.58a1,1,0,0,1-1,1H26.27a1,1,0,0,1-1-1V18.41l-4-5a1.59,1.59,0,0,1-.13-.22L18.61,7.29l-2.32,5.37A1,1,0,0,1,16,13L6.33,20.68a4.64,4.64,0,0,0-1.07,6.24,4.53,4.53,0,0,0,6.55,1L15.49,25A1,1,0,0,1,16.11,24.78Z"/><path class="cls-1" d="M57.35,36.05H26.27a1,1,0,0,1-1-1V15.48a1,1,0,0,1,1.58-.81l15,10.67,9.54-6.8h0l5.42-3.87a1,1,0,0,1,1.58.81V35.05A1,1,0,0,1,57.35,36.05Zm-30.09-2h29.1V17.42l-14,10a1,1,0,0,1-1.16,0l-14-10Z"/><path class="cls-1" d="M14.63,16.77a1,1,0,0,1,1-1h0a1,1,0,0,1,1,1h0a1,1,0,0,1-1,1h0A1,1,0,0,1,14.63,16.77Z"/></g></svg>