<svg xmlns="http://www.w3.org/2000/svg" viewBox="0 0 75 75"><defs><style>.cls-1{fill:#28d9cd;}</style></defs><title>15</title><g id="_13" data-name="13"><path class="cls-1" d="M37.63,72.39a1.07,1.07,0,0,1-.35-.06l-25.62-9.4A1,1,0,0,1,11,62V44.8a1,1,0,0,1,.43-.82,1,1,0,0,1,.92-.13l16.61,6,7.89-9.68a1,1,0,0,1,1.79.64V71.38a1,1,0,0,1-1,1ZM13,61.28l23.61,8.66V43.65L30.07,51.7a1,1,0,0,1-1.13.31L13,46.24Z"/><path class="cls-1" d="M37.63,72.39a1,1,0,0,1-.58-.18,1,1,0,0,1-.43-.83V40.83a1,1,0,0,1,.66-.95l25.63-9.4a1,1,0,1,1,.69,1.89L39.37,41.29l6.69,8.58,16.85-6.11a1,1,0,0,1,1.35.94V62a1,1,0,0,1-.66,1L38,72.33A1.07,1.07,0,0,1,37.63,72.39Zm1-28.76V69.94l23.61-8.66V46.14L46.06,52a1,1,0,0,1-1.14-.33Z"/><path class="cls-1" d="M29.29,52.07a1.07,1.07,0,0,1-.35-.06L3.16,42.67A1,1,0,0,1,2.54,42a1,1,0,0,1,.19-.9l8.5-10.29a1,1,0,0,1,1.12-.31L38,39.88a1,1,0,0,1,.62.68,1,1,0,0,1-.19.9L30.07,51.7A1,1,0,0,1,29.29,52.07ZM5.19,41.26,29,49.87l7-8.59L12.33,32.62Z"/><path class="cls-1" d="M45.71,52.07a1,1,0,0,1-.79-.39l-8-10.23a1,1,0,0,1-.17-.9,1,1,0,0,1,.62-.67l25.53-9.4A1,1,0,0,1,64,30.8l8.24,10.29a1,1,0,0,1,.18.9,1,1,0,0,1-.62.68L46.06,52A1.07,1.07,0,0,1,45.71,52.07ZM39.37,41.29l6.69,8.58,23.77-8.62-6.91-8.63Z"/><path class="cls-1" d="M12,31.68a1,1,0,0,1-.78-.37L2.73,21a1,1,0,0,1-.19-.9,1,1,0,0,1,.62-.69l25.78-9.34a1,1,0,0,1,1.14.33l8,10.23a1,1,0,0,1,.18.9,1,1,0,0,1-.62.67l-25.27,9.4A1.12,1.12,0,0,1,12,31.68ZM5.19,20.84l7.14,8.64,23.31-8.67-6.7-8.58Z"/><path class="cls-1" d="M62.79,31.68a1,1,0,0,1-.35-.06l-25.27-9.4a1,1,0,0,1-.44-1.57l8-10.23a1,1,0,0,1,1.13-.33l25.78,9.34a1,1,0,0,1,.63.69,1,1,0,0,1-.19.9l-8.5,10.29A1,1,0,0,1,62.79,31.68ZM39.16,20.81l23.31,8.67,7.14-8.64L45.86,12.23Z"/><path class="cls-1" d="M37.59,32.55a1,1,0,0,1-1-1V3.62a1,1,0,1,1,2,0V31.54A1,1,0,0,1,37.59,32.55Z"/><path class="cls-1" d="M37.59,33.47a1,1,0,0,1-.71-.3L33.3,29.6a1,1,0,0,1,1.43-1.43L37.59,31l2.87-2.87a1,1,0,0,1,1.42,1.43L38.3,33.17A1,1,0,0,1,37.59,33.47Z"/></g></svg>