<svg xmlns="http://www.w3.org/2000/svg" width="70" height="69" viewBox="0 0 70 69"><g><g><path fill="#2dd7ca" d="M8.37 68.96C3.63 68.567.05 65.137 0 60.965V.998C0 .445.45-.004 1.005-.004h49.121c.555 0 1.005.449 1.005 1.002v13.023l18.347 10.046a1.002 1.002 0 0 1 0 1.759l-4.502 2.465v9.282c.444.09.878.239 1.29.448.287.146.486.419.536.736l1.577 9.937a1.002 1.002 0 0 1-.993 1.16h-6.83a1.007 1.007 0 0 1-.992-1.16l1.576-9.937c.05-.317.25-.59.537-.736a5.04 5.04 0 0 1 1.29-.448v-8.182L57.1 32.602v12.125c0 .381-.216.73-.557.9a33.995 33.995 0 0 1-5.413 2.12v8.911h5.332c.555 0 1.005.449 1.005 1.004v3.218c0 4.477-4.152 8.12-9.255 8.12H9.255c-.3 0-.594-.016-.885-.04zM49.121 2H2.01v58.88c0 3.158 2.806 5.773 6.527 6.082.235.02.475.03.718.03 3.995 0 7.245-2.741 7.245-6.112v-3.218c0-.555.45-1.004 1.005-1.004H49.12v-8.375a38.492 38.492 0 0 1-8.833 1.02c-5.66 0-11.317-1.225-16.255-3.677a1.004 1.004 0 0 1-.557-.899V32.341l-11.902-6.515a1.003 1.003 0 0 1 0-1.76L40.043 8.48c.3-.165.666-.165.967 0l8.111 4.44zm-.908 64.993c3.995 0 7.245-2.742 7.245-6.113v-2.216H18.51v2.216c0 2.435-1.229 4.623-3.17 6.113zm13.52-19.145h4.477l-1.305-8.225a3.068 3.068 0 0 0-1.867 0zM25.486 44.1c9.062 4.272 20.542 4.273 29.605 0V27.327c-9.317-4.024-20.29-4.024-29.605 0zm14.802-21.794c5.573 0 11.145 1.152 16.225 3.456.358.163.588.52.588.913v3.639l9.804-5.367-26.379-14.444-26.378 14.444 9.328 5.107v-3.379c0-.393.23-.75.589-.913 5.08-2.304 10.651-3.456 16.223-3.456z"/></g></g></svg>