<svg xmlns="http://www.w3.org/2000/svg" width="70" height="69" viewBox="0 0 70 69"><g><g><path fill="#1dded2" d="M58.628 68.992h-19.58c-.337 0-.674-.036-1.004-.107-7.704.076-15.016-1.463-21.804-4.521a3.217 3.217 0 0 1-2.916 1.871H3.212a3.223 3.223 0 0 1-3.213-3.224V29.056a3.223 3.223 0 0 1 3.213-3.225h10.112a3.222 3.222 0 0 1 3.13 2.498c4.5-2.855 8.646-5.537 9.431-6.045L43.21 1.139c.61-.728 1.46-1.141 2.34-1.141.88 0 1.73.413 2.334 1.134 2.225 2.662 2.7 6.794 1.152 10.048-.88 1.854-1.6 3.406-2.154 5.101l-2.686 8.215 17.362.018c3.005 0 5.45 2.838 5.45 6.325 0 1.717-.593 3.276-1.554 4.417 2.496.585 4.425 3.055 4.5 6.004.046 1.882-.62 3.677-1.83 4.923a5.257 5.257 0 0 1-2.19 1.37c1.005 1.148 1.63 2.744 1.63 4.506 0 3.222-2.088 5.888-4.776 6.275.984 1.214 1.518 2.833 1.475 4.523-.086 3.382-2.613 6.135-5.635 6.135zm-20.475-2.145c.081 0 .162.01.24.028.215.053.435.079.655.079h19.58c1.93 0 3.548-1.86 3.605-4.149.034-1.336-.423-2.593-1.254-3.448-.432-.445-1.158-.975-2.165-.975-.56 0-1.015-.456-1.015-1.019 0-.562.455-1.019 1.015-1.019h3.299c1.886 0 3.42-1.922 3.42-4.285 0-2.364-1.534-4.287-3.42-4.287-.56 0-1.015-.456-1.015-1.018 0-.563.454-1.02 1.015-1.02h2.392c1.006 0 1.732-.53 2.165-.974.83-.854 1.287-2.112 1.253-3.448-.057-2.289-1.674-4.15-3.604-4.15h-2.762c-.56 0-1.015-.456-1.015-1.018 0-.563.455-1.019 1.015-1.019 1.886 0 3.42-1.923 3.42-4.286 0-2.364-1.534-4.286-3.42-4.286l-18.764-.02a1.017 1.017 0 0 1-.962-1.337l3.123-9.55c.638-1.954 1.532-3.833 2.25-5.342 1.216-2.558.856-5.792-.876-7.862-.439-.526-1.117-.526-1.556 0l-17.42 21.26c-.066.08-.145.15-.232.208-.054.033-5.225 3.387-10.583 6.778v31.571c6.704 3.115 13.96 4.659 21.607 4.588h.01zM3.212 27.869c-.652 0-1.183.532-1.183 1.187V63.01c0 .654.531 1.187 1.183 1.187h10.112c.652 0 1.183-.533 1.183-1.187V29.056c0-.655-.531-1.187-1.183-1.187zm5.056 32.608A3.175 3.175 0 0 1 5.102 57.3a3.175 3.175 0 0 1 3.166-3.177 3.175 3.175 0 0 1 3.166 3.177 3.175 3.175 0 0 1-3.166 3.177zm0-4.316a1.138 1.138 0 0 0 0 2.279 1.14 1.14 0 0 0 0-2.28z"/></g></g></svg>