<svg xmlns="http://www.w3.org/2000/svg" width="70" height="70" viewBox="0 0 70 70"><g><g><path fill="#2dd7ca" d="M5.904 7.282c-.272 0-.53-.116-.72-.306a.665.665 0 0 1-.129-.149 1.482 1.482 0 0 1-.095-.177 1.782 1.782 0 0 1-.054-.19 1.012 1.012 0 0 1 .278-.922 1.008 1.008 0 0 1 1.107-.218c.06.028.122.055.176.096a.814.814 0 0 1 .156.122c.048.047.089.103.13.156a.852.852 0 0 1 .087.177.972.972 0 0 1 0 .779.866.866 0 0 1-.088.177.885.885 0 0 1-.129.149.843.843 0 0 1-.156.129 1.555 1.555 0 0 1-.176.095.943.943 0 0 1-.387.082zm7.311-1.018c0-.564.455-1.025 1.019-1.025.562 0 1.018.461 1.018 1.025 0 .556-.456 1.01-1.019 1.01a1.015 1.015 0 0 1-1.018-1.01zm9.348 1.018a.943.943 0 0 1-.388-.082.765.765 0 0 1-.176-.095c-.06-.034-.109-.08-.156-.122a1.439 1.439 0 0 1-.129-.156 1.466 1.466 0 0 1-.095-.177 1.782 1.782 0 0 1-.054-.19 1.032 1.032 0 0 1 .278-.923.65.65 0 0 1 .156-.12.753.753 0 0 1 .176-.097.77.77 0 0 1 .19-.06c.13-.021.265-.021.394 0 .068.013.13.034.19.06.062.028.123.055.177.096a.814.814 0 0 1 .156.122 1.032 1.032 0 0 1 .278.923.982.982 0 0 1-.06.189.878.878 0 0 1-.374.455.924.924 0 0 1-.176.095.943.943 0 0 1-.387.082zM-.005 61.815V1.01c0-.562.456-1.018 1.018-1.018h49.77c.563 0 1.02.456 1.02 1.018v21.27c0 .13-.025.255-.07.37h1.843v-.353c0-.36.192-.695.504-.878l7.12-4.169a1.015 1.015 0 0 1 1.03 0l7.098 4.156a1.013 1.013 0 0 1 .526.891 1.01 1.01 0 0 1-.248.667c-.082.095-.18.172-.286.23l-3.066 1.794a1.017 1.017 0 0 1-1.089.004l-3.45-2.02-2.973 1.74v3.508l2.973 1.74 3.477-2.035c.339-.2.746-.18 1.058.017l3.09 1.809a1.012 1.012 0 0 1 .514.884 1.01 1.01 0 0 1-.38.794c-.041.033-.084.062-.129.088l-7.116 4.165a1.013 1.013 0 0 1-.514.139c-.178 0-.356-.045-.514-.139l-7.121-4.169a1.018 1.018 0 0 1-.504-.878v-.353h-1.774v8.696l12.518-.976c1.12-.107 2.215.274 3.083 1.065 1.086.99 1.708 2.52 1.708 4.204 0 1.68-.623 3.213-1.709 4.203-.773.703-1.73 1.08-2.728 1.08-.122 0-.245-.006-.369-.018L51.8 47.56c.002.02.002.039.002.058v9.859h5.402c.562 0 1.019.455 1.019 1.017v3.265c0 4.542-4.207 8.237-9.377 8.237H9.372c-.303 0-.602-.015-.897-.039-4.8-.4-8.43-3.878-8.48-8.11v-.033zM25.22 30.282v.353c0 .362-.192.696-.504.878l-7.121 4.17a1.012 1.012 0 0 1-.515.138c-.178 0-.356-.045-.514-.139l-7.106-4.16a1.009 1.009 0 0 1-.464-.555 1.01 1.01 0 0 1 .016-.705c.08-.205.228-.385.432-.505l3.116-1.824.046-.026c.332-.18.725-.156 1.027.035l3.447 2.018 2.973-1.74v-3.507l-2.973-1.74-3.447 2.017a1.022 1.022 0 0 1-1.075.008l-3.104-1.817a1.01 1.01 0 0 1-.513-.884 1.012 1.012 0 0 1 .526-.89l7.099-4.157a1.015 1.015 0 0 1 1.028 0l7.122 4.17c.312.182.504.516.504.877v.353h24.615a1.015 1.015 0 0 1-.07-.37V11.29H2.032v50.47c0 3.204 2.844 5.856 6.613 6.17.24.02.483.032.728.032 4.048 0 7.34-2.782 7.34-6.202v-3.265c0-.562.457-1.017 1.019-1.017h32.035v-9.86c0-.073.007-.144.022-.213l-3.558-.278a1.017 1.017 0 0 1-.94-1.014v-1.825H32.3l-2.175 2.134a1.02 1.02 0 0 1-.713.29h-6.519a1.018 1.018 0 0 1-1.018-1.017v-4.85c0-.563.456-1.018 1.018-1.018h6.519c.267 0 .523.105.713.292l2.175 2.133H45.29v-1.825c0-.531.409-.973.938-1.014l3.537-.276v-8.855zm23.625 37.68c4.048 0 7.341-2.782 7.341-6.202v-2.248H18.75v2.248c0 2.47-1.244 4.69-3.212 6.202zm.92-58.707V2.027H2.032v7.228zm-2.438 35.917l17.151 1.337c.723.066 1.242-.256 1.553-.54.663-.605 1.044-1.589 1.044-2.698 0-1.112-.38-2.096-1.044-2.7-.31-.283-.824-.608-1.538-.54l-17.166 1.338zm-23.417-.494h5.084l1.435-1.407-1.435-1.409H23.91zm.291-19.991a1.019 1.019 0 0 1-1.018-1.018v-.789l-6.103-3.573-5.107 2.99 1.116.653 3.477-2.035a1.018 1.018 0 0 1 1.028 0l3.991 2.336c.313.184.504.517.504.879v4.673c0 .362-.191.695-.504.878l-3.99 2.336a1.013 1.013 0 0 1-1.03 0l-3.476-2.035-1.115.653 5.106 2.99 6.103-3.573v-.787c0-.563.456-1.018 1.018-1.018h30.393c.563 0 1.019.455 1.019 1.018v.787l6.102 3.572 5.107-2.989-1.116-.653-3.477 2.035a1.014 1.014 0 0 1-1.028 0l-3.991-2.336a1.017 1.017 0 0 1-.504-.878V24.13c0-.362.191-.695.504-.879l3.99-2.336a1.02 1.02 0 0 1 1.03 0l3.476 2.035 1.116-.653-5.107-2.99-6.102 3.573v.788c0 .562-.456 1.018-1.019 1.018H24.201z"/></g></g></svg>