<?xml version="1.0"?>
<svg xmlns="http://www.w3.org/2000/svg" id="icons" enable-background="new 0 0 64 64" height="512px" viewBox="0 0 64 64" width="512px"><g><path d="m63.996 54.48c-.002-.116-.026-.229-.068-.338-.011-.029-.025-.055-.039-.082-.02-.039-.032-.08-.057-.116l-10-15c-.019-.027-.047-.042-.066-.066-.044-.055-.091-.101-.145-.145-.051-.04-.1-.075-.155-.104s-.112-.052-.173-.071c-.066-.02-.13-.033-.198-.04-.033-.003-.062-.019-.095-.019h-12.357c3.729-4.962 7.357-11.465 7.357-17.998 0-8.822-7.178-16-16-16s-16 7.178-16 16c0 6.533 3.628 13.036 7.357 17.998h-12.357c-.033 0-.062.016-.095.019-.069.007-.134.021-.2.041-.06.019-.115.04-.17.069-.057.03-.106.065-.157.106-.054.043-.1.09-.143.143-.021.025-.049.04-.067.067l-10 15c-.024.036-.037.077-.057.116-.014.027-.028.053-.039.082-.042.109-.066.222-.068.338 0 .006-.004.012-.004.019v4c0 .553.447 1 1 1h62c.553 0 1-.447 1-1v-4c0-.007-.004-.013-.004-.019zm-9.215-.981-.953-2h5.971l1.333 2zm-3.814-8-2.383-5h3.881l3.334 5zm-18.967-38.998c7.72 0 14 6.28 14 14 0 10.733-11.146 21.944-14 24.639-.291-.274-.672-.642-1.114-1.083-.095-.188-.245-.339-.433-.437-4.093-4.165-12.453-13.811-12.453-23.119 0-7.72 6.28-14 14-14zm9.681 38.998.86 3h-21.082l.86-3h7.164c1.03 1.02 1.731 1.642 1.857 1.752.188.165.424.248.659.248s.471-.083.659-.248c.126-.11.827-.732 1.857-1.752zm-14.133-2h-5.981c-.021 0-.04.011-.062.013-.065.004-.125.021-.188.037-.065.018-.13.032-.189.062-.052.025-.096.062-.143.097-.056.041-.111.079-.157.131-.039.043-.066.094-.098.145-.037.061-.074.12-.098.189-.007.019-.021.032-.027.052l-1.434 5c-.014.046-.005.091-.011.136-.007.048-.028.09-.028.14 0 .021.011.039.012.06.005.069.022.133.041.199.016.061.029.121.057.177s.065.103.103.152c.04.054.077.105.126.15.044.039.096.066.146.098.061.038.119.074.188.098.019.007.032.021.052.027.091.026.183.038.273.038 0 0 .001.001.002.001h23.734c.001 0 .002-.001.002-.001.091 0 .183-.012.273-.038.02-.006.033-.021.052-.027.069-.023.128-.06.188-.098.051-.031.103-.059.146-.098.049-.045.086-.097.126-.15.037-.05.075-.097.103-.152s.041-.116.058-.178c.018-.065.035-.129.04-.198.001-.021.012-.038.012-.06 0-.05-.021-.092-.028-.14-.007-.046.002-.09-.011-.136l-1.434-5c-.006-.02-.021-.033-.027-.052-.023-.069-.061-.129-.099-.19-.031-.05-.058-.101-.097-.144-.046-.051-.101-.09-.156-.131-.048-.034-.092-.071-.145-.097-.059-.029-.122-.044-.188-.061-.063-.017-.123-.034-.188-.038-.021-.002-.04-.013-.062-.013h-5.981c.813-.876 1.703-1.885 2.618-3h7.299l3.063 6.426c.047.099.111.184.183.259.023.025.052.042.077.064.061.052.124.096.194.131.04.021.079.039.122.054.082.028.167.045.255.052.025.002.048.015.074.015h6.795l1.333 2h-6.221c-.005 0-.009.003-.014.003-.084.001-.166.027-.25.05-.047.014-.097.017-.141.036-.01.004-.02.002-.028.007-.061.029-.104.077-.155.116-.045.033-.094.06-.132.1-.057.059-.095.129-.135.199-.023.041-.054.077-.071.121-.034.086-.045.176-.054.268-.004.034-.021.064-.021.101 0 .005.003.01.003.015.001.077.026.151.046.229.014.055.019.112.041.163.004.008.002.016.006.022l1.227 2.571h-41.13l4.562-9.569c.003-.006.002-.012.005-.019.031-.067.039-.144.055-.219.012-.058.033-.112.034-.169 0-.009.005-.016.005-.024 0-.058-.023-.107-.033-.163-.011-.065-.015-.132-.039-.194-.025-.066-.067-.122-.106-.181-.031-.049-.056-.1-.096-.143-.056-.059-.124-.1-.192-.144-.037-.024-.063-.059-.104-.078-.006-.003-.013-.002-.019-.005-.063-.028-.134-.035-.202-.051-.064-.014-.127-.037-.19-.038-.007 0-.012-.004-.019-.004h-4.892l1.333-2h13.394c.915 1.114 1.805 2.123 2.618 2.999zm-18.68 1h4.641l-4.29 9h-6.351zm53.132 13h-60v-2h60z" data-original="#000000" class="active-path" data-old_color="#000000" fill="#2CD7CA"/><path d="m24.223 26.103c.043.055.086.104.14.149.021.018.032.043.055.059l7.002 4.999c.028.021.062.029.092.046.023.013.044.029.068.04.023.011.046.02.071.029.113.043.23.071.349.071h.001.001c.118 0 .235-.028.349-.071.025-.009.048-.018.071-.029.024-.011.045-.027.068-.04.03-.017.063-.025.092-.046l7.002-4.999c.022-.016.034-.041.055-.059.054-.045.097-.095.14-.15.039-.049.075-.097.104-.152.028-.056.047-.114.065-.175.019-.066.034-.129.04-.198.002-.027.016-.051.016-.08v-6.994c0-.028-.014-.051-.016-.078-.003-.037 0-.074-.008-.11-.008-.039-.025-.074-.037-.111-.018-.055-.036-.105-.063-.155-.016-.031-.028-.063-.048-.092-.007-.011-.008-.024-.016-.035-.016-.022-.04-.033-.058-.054-.039-.046-.079-.086-.126-.125-.019-.016-.028-.038-.049-.052l-7.002-5.004c-.01-.007-.021-.007-.03-.014-.063-.042-.134-.064-.203-.091-.053-.02-.102-.048-.156-.058-.067-.014-.136-.006-.205-.006-.059.001-.116-.006-.174.005-.061.012-.116.042-.176.065-.063.025-.127.045-.186.083-.01.007-.022.007-.032.015l-7.002 5.002c-.022.016-.033.04-.054.058-.043.036-.081.072-.117.115-.019.021-.045.033-.062.057-.008.011-.009.025-.017.036-.02.03-.031.062-.048.094-.025.048-.044.097-.061.149-.013.039-.03.075-.038.115-.008.036-.004.073-.008.11-.002.028-.016.051-.016.08v6.994c0 .028.014.052.016.08.006.069.021.132.041.199.018.061.036.119.064.174.03.056.067.104.106.154zm7.777-11.374 5.28 3.774-5.28 3.772-5.281-3.773zm-6.002 5.715 5.002 3.574v4.535l-5.002-3.571zm7.002 3.575 5.002-3.572v4.536l-5.002 3.57z" data-original="#000000" class="active-path" data-old_color="#000000" fill="#2CD7CA"/></g> </svg>
