<?xml version="1.0"?>
<svg xmlns="http://www.w3.org/2000/svg" id="icons" enable-background="new 0 0 64 64" height="512px" viewBox="0 0 64 64" width="512px"><g><path d="m47.921.618c-.047-.113-.116-.213-.199-.3-.007-.008-.009-.018-.017-.025-.013-.013-.03-.017-.043-.028-.084-.076-.177-.143-.282-.187-.108-.045-.223-.063-.338-.068-.016-.001-.028-.009-.044-.009h-22c-.007 0-.013.004-.021.004-.123.003-.246.025-.362.073-.113.047-.214.117-.302.2-.007.007-.017.009-.023.016l-7 7.011c-.2.201-.294.466-.288.729v13.528l-8.662 7.703c-.007.006-.01.016-.017.021-.008.008-.02.012-.027.02l-7.012 6.986c-.391.39-.393 1.022-.002 1.414.196.196.451.294.708.294.255 0 .511-.098.706-.292l5.308-5.288v30.578c0 .553.447 1 1 1h32.983c.002 0 .003.001.005.001.131 0 .262-.027.385-.079.048-.02.084-.058.128-.085.066-.04.137-.071.194-.129l13.001-13.007c.093-.092.166-.203.217-.326.051-.122.077-.252.077-.382v-18.567l6.723-6.723s0 0 0-.001h.001c.048-.048.071-.108.107-.162.037-.057.087-.107.111-.169.026-.063.027-.133.039-.199.011-.06.034-.117.034-.177 0-.061-.023-.118-.035-.178-.012-.066-.013-.135-.039-.198-.024-.062-.074-.113-.112-.17-.036-.053-.059-.112-.106-.16 0 0 0 0-.001 0 0-.001 0-.001 0-.001l-7.014-6.988c-.007-.007-.017-.009-.023-.016-.088-.083-.188-.153-.302-.2-.034-.014-.071-.014-.106-.023-.091-.026-.183-.054-.276-.054h-6.996v-15.004c-.001-.131-.027-.261-.078-.383zm12.674 23.377-11.592 11.592-5.597-5.575 11.59-11.595zm-35.182-21.994h19.173l-5.003 5.011h-19.173zm-6.411 20.065v-13.054h19.996v19.995h-19.996zm26.996 2.524-4.42 4.422h-.58v-20.585l5-5.008zm-28.996 4.422h-5.369l5.369-4.775zm23.988 32.986h-30.986v-30.986h30.986zm13.004-12.421-11.004 11.009v-28.166l5.308 5.288c.079.079.172.13.267.177.022.011.04.032.063.042.12.049.248.073.376.073.202 0 .396-.079.567-.2.046-.032.099-.052.14-.093l4.283-4.283zm-1.413-31.572-4.583 4.584v-4.584z" data-original="#000000" class="active-path" data-old_color="#000000" fill="#2CD7CA"/><path d="m25.527 58.004c6.341 0 11.5-5.159 11.5-11.5s-5.159-11.5-11.5-11.5-11.5 5.159-11.5 11.5 5.16 11.5 11.5 11.5zm0-21c5.238 0 9.5 4.262 9.5 9.5s-4.262 9.5-9.5 9.5-9.5-4.262-9.5-9.5 4.262-9.5 9.5-9.5z" data-original="#000000" class="active-path" data-old_color="#000000" fill="#2CD7CA"/><path d="m19.093 50.33c.021.061.054.113.087.167.032.056.063.109.105.158.047.052.102.091.158.132.036.027.062.064.103.087l5.49 2.997c.02.011.041.015.061.023.024.012.048.02.073.029.006.002.012.004.018.007.025.009.049.021.074.028.084.022.168.034.253.034h.001.001c.085 0 .169-.012.253-.034.025-.007.049-.02.074-.028.006-.003.012-.005.018-.007.025-.01.049-.018.073-.029.02-.009.041-.013.061-.023l5.49-2.997c.041-.022.066-.06.103-.086.057-.042.111-.081.158-.133.043-.049.073-.103.105-.157.033-.055.065-.107.087-.168.023-.066.032-.135.041-.204.006-.045.026-.084.026-.13v-6.994c0-.017-.009-.031-.01-.047-.002-.049-.013-.095-.022-.143s-.018-.094-.034-.14c-.013-.036-.024-.069-.041-.104-.008-.015-.007-.032-.015-.047-.015-.027-.04-.043-.058-.068-.024-.036-.047-.071-.076-.104-.027-.031-.054-.06-.085-.088-.039-.034-.081-.061-.125-.089-.021-.013-.033-.034-.055-.046l-5.49-3.002c-.031-.018-.066-.018-.099-.031-.063-.026-.124-.047-.191-.06-.065-.013-.129-.019-.195-.019-.06 0-.116.006-.176.017-.071.013-.136.034-.202.063-.031.013-.065.013-.096.029l-5.49 3c-.023.013-.036.034-.058.049-.045.028-.086.057-.126.092-.027.025-.053.051-.077.079-.031.035-.056.071-.081.109-.017.024-.042.04-.057.067-.009.017-.008.034-.016.051-.016.032-.027.063-.039.098-.017.047-.025.094-.035.143-.01.048-.021.094-.022.143-.001.017-.01.031-.01.048v6.994c0 .046.021.085.026.129.01.07.018.139.042.205zm6.424-9.188 3.402 1.86-3.403 1.859-3.402-1.86zm-4.492 3.545 3.49 1.908v4.713l-3.49-1.905zm5.491 1.908 3.49-1.906v4.714l-3.49 1.905z" data-original="#000000" class="active-path" data-old_color="#000000" fill="#2CD7CA"/></g> </svg>
