<svg xmlns="http://www.w3.org/2000/svg" viewBox="0 0 75 75"><defs><style>.cls-1{fill:#28d9cd;}</style></defs><title>youtube-3d</title><g id="_13" data-name="13"><path class="cls-1" d="M67.44,72.33H7.55a5.06,5.06,0,0,1-5-5V7.72a5.06,5.06,0,0,1,5.05-5H67.44a5.06,5.06,0,0,1,5,5.05V67.28A5.06,5.06,0,0,1,67.44,72.33ZM7.55,4.71a3,3,0,0,0-3,3V67.28a3,3,0,0,0,3,3H67.44a3,3,0,0,0,3-3V7.72a3,3,0,0,0-3-3Z"/><path class="cls-1" d="M71.48,56.92H3.53a1,1,0,1,1,0-2h68a1,1,0,1,1,0,2Z"/><path class="cls-1" d="M31.45,39.91a1.08,1.08,0,0,1-.54-.15,1,1,0,0,1-.47-.86V20.73a1,1,0,0,1,.47-.86,1,1,0,0,1,1-.06L50.79,28.9a1,1,0,0,1,.57.91,1,1,0,0,1-.57.92L31.9,39.81A1,1,0,0,1,31.45,39.91Zm1-17.56V37.28L48,29.81Z"/><path class="cls-1" d="M15.59,67H9.84a1,1,0,0,1-1-1V60.2a1,1,0,0,1,1-1h5.75a1,1,0,0,1,1,1V66A1,1,0,0,1,15.59,67Zm-4.74-2h3.72V61.22H10.85Z"/><path class="cls-1" d="M63.91,64.1H15.59a1,1,0,1,1,0-2H63.91a1,1,0,0,1,0,2Z"/></g></svg>