<?xml version="1.0" encoding="UTF-8"?>
<!DOCTYPE svg PUBLIC "-//W3C//DTD SVG 1.1//EN" "http://www.w3.org/Graphics/SVG/1.1/DTD/svg11.dtd">
<!-- Creator: CorelDRAW 2017 -->
<svg xmlns="http://www.w3.org/2000/svg" xml:space="preserve" width="156px" height="16px" version="1.1" style="shape-rendering:geometricPrecision; text-rendering:geometricPrecision; image-rendering:optimizeQuality; fill-rule:evenodd; clip-rule:evenodd"
viewBox="0 0 156 16"
 xmlns:xlink="http://www.w3.org/1999/xlink"
 data-name="Layer 1">
 <defs>
  <style type="text/css">
   <![CDATA[
    .fil0 {fill:#bcbcbc}
   ]]>
  </style>
 </defs>
 <g id="Слой_x0020_1">
  <metadata id="CorelCorpID_0Corel-Layer"/>
  <g id="_959874960">
   <g>
    <path class="fil0" d="M0.19 2.01l1.99 0 0 1.99 -1.99 0 0 -1.99zm0 10l1.99 0 0 1.98 -1.99 0 0 -1.98zm2 -10.01l0 -1.98 5.97 0 0 1.98 -5.97 0zm0 12l5.97 0 0 1.99 -5.97 0 0 -1.99zm1.99 -7.99l3.98 0 0 1.99 -3.97 0 -0.01 -1.99zm3.99 -4l1.99 0 0 3.99 -1.98 0 -0.01 -3.99zm0 6l1.99 0 0 5.98 -1.98 0 -0.01 -5.98z"/>
    <path class="fil0" d="M12.32 0.02l7.98 0 0 1.98 -5.98 0 0 12 6 0 0 1.99 -8 0 0 -15.97zm7.99 1.99l1.98 0 0 11.98 -1.98 0 0 -11.98z"/>
    <path class="fil0" d="M24.46 6.01l1.98 0 0 7.98 -1.98 0 0 -7.98zm1.99 0l0 -1.99 5.97 0 0 1.98 -5.97 0 0 0.01zm0 8.02l5.97 0 0 1.98 -5.97 0 0 -1.98zm6 -7.99l1.98 0 0 1.96 -1.98 0 0 -1.96zm0 5.99l1.98 0 0 1.96 -1.98 0 0 -1.96z"/>
    <path class="fil0" d="M108.28 4.02l1.98 0 0 9.97 -1.98 0 0 -9.97zm1.99 10l5.97 0 0 1.98 -5.97 0 0 -1.98zm6 -9.99l1.98 0 0 9.96 -1.98 0 0 -9.96z"/>
    <path class="fil0" d="M36.58 4.02l1.99 0 0 1.99 1.99 0 0 1.99 -1.98 0 0 7.99 -2 0 0 -11.97zm4 0l3.98 0 0 1.98 -3.99 0 0.01 -1.98z"/>
    <path class="fil0" d="M46.8 6.01l1.99 0 0 7.98 -1.99 0 0 -7.98zm2 7.98l5.99 0 0 -7.99 -5.98 0 0 -1.98 7.97 0 0 11.97 -7.97 0 -0.01 -2z"/>
    <path class="fil0" d="M58.94 2.01l2.01 0 0 2.01 4 0 0 1.98 -4 0 0 10 -2.01 0 0 -13.99zm2.01 -1.99l3.97 0 0 1.98 -3.97 0 0 -1.98z"/>
    <polygon class="fil0" points="68.61,6 66.58,6 66.58,4.02 68.61,4.02 68.61,0.02 70.59,0.02 70.59,4.02 72.59,4.02 72.59,6 70.6,6 70.6,16 68.61,16 "/>
    <path class="fil0" d="M74.28 6.01l1.98 0 0 4.01 6.01 0 0 -4.02 -6 0 0 -1.98 7.98 0 0 7.98 -7.98 0 0 1.99 -1.98 0 -0.01 -7.98zm1.99 7.99l5.97 0 0 1.99 -5.97 0 0 -1.99z"/>
    <path class="fil0" d="M86.4 4.02l1.99 0 0 1.99 1.99 0 0 1.99 -1.98 0 0 7.99 -1.99 0 -0.01 -11.97zm4 0l3.98 0 0 1.98 -3.98 0 0 -1.98z"/>
    <polygon class="fil0" points="94.38,14 96.35,14 96.35,15.99 94.38,15.99 "/>
    <path class="fil0" d="M98.33 4.02l1.98 0 0 1.99 1.99 0 0 1.99 -1.98 0 0 7.99 -1.98 0 -0.01 -11.97zm4 0l3.98 0 0 1.98 -3.98 0 0 -1.98z"/>
   </g>
  </g>
 </g>
</svg>
