<?xml version="1.0" encoding="UTF-8"?>
<!DOCTYPE svg PUBLIC "-//W3C//DTD SVG 1.1//EN" "http://www.w3.org/Graphics/SVG/1.1/DTD/svg11.dtd">
<!-- Creator: CorelDRAW X7 -->
<svg xmlns="http://www.w3.org/2000/svg" xml:space="preserve" version="1.1" style="shape-rendering:geometricPrecision; text-rendering:geometricPrecision; image-rendering:optimizeQuality; fill-rule:evenodd; clip-rule:evenodd"
viewBox="0 0 4400 4400"
 xmlns:xlink="http://www.w3.org/1999/xlink">
 <defs>
  <style type="text/css">
   <![CDATA[
    .fil0 {fill:#D0D0D0}
   ]]>
  </style>
 </defs>
 <g id="Слой_x0020_1">
  <metadata id="CorelCorpID_0Corel-Layer"/>
  <path class="fil0" d="M1600 4200l1000 0 0 -1200 -1000 0 0 1200zm-1600 -3800l200 0 0 -200 200 0 0 -200 3600 0 0 200 200 0 0 200 200 0c0,533 0,1067 0,1600l-600 0 0 400 200 0 0 400 -200 0 0 -400 -200 0 0 400 -200 0 0 -400 -200 0 0 400 -200 0 0 -400 -200 0 0 400 0 400 400 0c0,267 0,533 0,800l-200 0 0 200 -200 0 0 200 -1400 0 0 -1600 0 -400 -200 0 0 400 -200 0 0 -400 -200 0 0 400 -200 0 0 -400 -200 0 0 -400 -400 0 0 -1600zm2600 2400l0 -400 -200 0 0 400 200 0zm-400 0l0 -400 -200 0 0 400 200 0zm-400 0l0 -400 -200 0 0 400 200 0zm1200 1000l0 -400 -200 0 0 400 200 0zm600 -1800l-200 0 0 400 200 0 0 -400zm-400 0l-200 0 -200 0 0 400 -200 0 0 -400 -200 0 0 400 -200 0 0 -400 -200 0 0 400 -200 0 0 -400 -200 0 0 400 -200 0 0 -600 1600 0 0 600 200 0 0 -400zm-2000 0l-200 0 0 400 200 0 0 -400zm-400 0l-200 0 0 400 200 0 0 -400zm-400 -1400l-200 0 0 1200 1000 0 0 -200c667,0 1333,0 2000,0l0 200 1000 0 0 -1200 -200 0 0 -200 -200 0 0 -200 -3200 0 0 200 -200 0 0 200z"/>
 </g>
</svg>
