<?xml version="1.0" encoding="UTF-8"?>
<!DOCTYPE svg PUBLIC "-//W3C//DTD SVG 1.1//EN" "http://www.w3.org/Graphics/SVG/1.1/DTD/svg11.dtd">
<!-- Creator: CorelDRAW X7 -->
<svg xmlns="http://www.w3.org/2000/svg" xml:space="preserve" version="1.1" style="shape-rendering:geometricPrecision; text-rendering:geometricPrecision; image-rendering:optimizeQuality; fill-rule:evenodd; clip-rule:evenodd"
viewBox="0 0 4400 4400"
 xmlns:xlink="http://www.w3.org/1999/xlink">
 <defs>
  <style type="text/css">
   <![CDATA[
    .fil1 {fill:#5FD1A1}
    .fil2 {fill:#D1685F}
    .fil0 {fill:#D1A15F}
   ]]>
  </style>
 </defs>
 <g id="Слой_x0020_1">
  <metadata id="CorelCorpID_0Corel-Layer"/>
  <path class="fil0" d="M0 400l200 0 0 -200 200 0 0 -200 3600 0 0 200 200 0 0 200 200 0c0,533 0,1067 0,1600 -467,0 -933,0 -1400,0l0 -200 -1600 0 0 200c-467,0 -933,0 -1400,0l0 -1600zm400 200l-200 0 0 1200 1000 0 0 -200c667,0 1333,0 2000,0l0 200 1000 0 0 -1200 -200 0 0 -200 -200 0 0 -200 -3200 0 0 200 -200 0 0 200z"/>
  <polygon class="fil1" points="400,2400 600,2400 600,2800 800,2800 800,2400 1000,2400 1000,2800 1200,2800 1200,2400 1400,2400 1400,2800 1600,2800 1600,2400 1800,2400 1800,2800 2000,2800 2000,2400 2200,2400 2200,2800 2400,2800 2400,2400 2600,2400 2600,2800 2800,2800 2800,2400 3000,2400 3000,2800 3200,2800 3200,2400 3400,2400 3400,2800 3600,2800 3600,2400 3800,2400 3800,2800 4000,2800 4000,2400 3800,2400 3800,2000 3600,2000 3600,2400 3400,2400 3400,2000 3200,2000 3200,2400 3000,2400 3000,2000 2800,2000 2800,2400 2600,2400 2600,2000 2400,2000 2400,2400 2200,2400 2200,2000 2000,2000 2000,2400 1800,2400 1800,2000 1600,2000 1600,2400 1400,2400 1400,2000 1200,2000 1200,2400 1000,2400 1000,2000 800,2000 800,2400 600,2400 600,2000 400,2000 "/>
  <path class="fil2" d="M1600 4200l1000 0 0 -1200 -1000 0 0 1200zm-200 -1400l1400 0 0 400 400 0c0,267 0,533 0,800l-200 0 0 200 -200 0 0 200 -1400 0 0 -1600zm1600 1000l0 -400 -200 0 0 400 200 0z"/>
 </g>
</svg>
