<?xml version="1.0" encoding="UTF-8"?>
<!DOCTYPE svg PUBLIC "-//W3C//DTD SVG 1.1//EN" "http://www.w3.org/Graphics/SVG/1.1/DTD/svg11.dtd">
<!-- Creator: CorelDRAW X7 -->
<svg xmlns="http://www.w3.org/2000/svg" xml:space="preserve" version="1.1" style="shape-rendering:geometricPrecision; text-rendering:geometricPrecision; image-rendering:optimizeQuality; fill-rule:evenodd; clip-rule:evenodd"
viewBox="0 0 4400 4400"
 xmlns:xlink="http://www.w3.org/1999/xlink">
 <defs>
  <style type="text/css">
   <![CDATA[
    .fil2 {fill:none}
    .fil1 {fill:#5FD1A1}
    .fil0 {fill:#D1A15F}
   ]]>
  </style>
 </defs>
 <g id="Слой_x0020_1">
  <metadata id="CorelCorpID_0Corel-Layer"/>
  <path class="fil0" d="M1400 800l1600 0 0 200 -200 0 0 3200 -200 0 0 200 -800 0 0 -200 -200 0 0 -3200 -200 0 0 -200zm1200 3200l0 -3000 -800 0 0 3000 800 0z"/>
  <path class="fil1" d="M1800 4000l800 0 0 -2600 -400 0 0 -200 0 -200 200 0 0 200 -200 0 -200 0 0 200 -200 0 0 2600zm600 -3900l200 0 0 200 -200 0 0 -200zm-600 -100l200 0 0 200 200 0 0 200 200 0 0 200 -200 0 0 200 -200 0 0 -200 200 0 0 -200 -200 0 0 -200 -200 0 0 -200z"/>
  <rect class="fil2" width="4400" height="4400"/>
 </g>
</svg>
