<?xml version="1.0" encoding="UTF-8"?>
<!DOCTYPE svg PUBLIC "-//W3C//DTD SVG 1.1//EN" "http://www.w3.org/Graphics/SVG/1.1/DTD/svg11.dtd">
<!-- Creator: CorelDRAW X7 -->
<svg xmlns="http://www.w3.org/2000/svg" xml:space="preserve" version="1.1" style="shape-rendering:geometricPrecision; text-rendering:geometricPrecision; image-rendering:optimizeQuality; fill-rule:evenodd; clip-rule:evenodd"
viewBox="0 0 4400 4400"
 xmlns:xlink="http://www.w3.org/1999/xlink">
 <defs>
  <style type="text/css">
   <![CDATA[
    .fil0 {fill:#D0D0D0}
    .fil1 {fill:#F8F8F8}
   ]]>
  </style>
 </defs>
 <g id="Слой_x0020_1">
  <metadata id="CorelCorpID_0Corel-Layer"/>
  <polygon class="fil0" points="4400,1200 4200,1200 4200,800 4000,800 4000,600 3800,600 3800,400 3600,400 3600,200 3200,200 3200,0 1200,0 1200,200 800,200 800,400 600,400 600,600 400,600 400,800 200,800 200,1200 0,1200 0,3200 200,3200 200,3600 400,3600 400,3800 600,3800 600,4000 800,4000 800,4200 1200,4200 1200,4400 3200,4400 3200,4200 3600,4200 3600,4000 3800,4000 3800,3800 4000,3800 4000,3600 4200,3600 4200,3200 4400,3200 "/>
  <path class="fil1" d="M1400 1700l0 200 -500 0 0 -100 -100 0 0 -100 -500 0 0 100 -100 0 0 100 -100 0 0 800 600 0 0 200 100 0 0 200 100 0 0 200 -100 0 0 300 100 0 0 500 200 0 0 -100 100 0 0 -100 100 0 0 -200 100 0 0 -100 100 0 0 -300 100 0 0 -400 100 0 0 -200 100 0 0 -200 -100 0 0 -100 -100 0 0 -100 -100 0 0 -500 200 0 0 100 200 0 0 100 300 0 0 100 200 0 0 200 100 0 0 200 200 0 0 -200 100 0 0 -100 100 0 0 -100 100 0 0 100 100 0 0 200 100 0 0 100 100 0 0 -100 100 0 0 -100 100 0 0 -200 200 0 0 -400 -100 0 0 -100 -100 0 0 -100 200 0 0 100 200 0 0 -400 -100 0 0 -100 -100 0 0 -100 300 0 0 -100 100 0 0 300 100 0 0 -400 -200 0 0 -100 -900 0 0 -100 -200 0 0 100 -200 0 0 -100 -200 0 0 -100 -200 0 0 100 -200 0 0 100 -1200 0 0 100 -100 0 0 100 -100 0 0 100 100 0 0 100 -100 0 0 100 -100 0 0 -100 -300 0 0 100 100 0 0 100 100 0 0 200 500 0 0 100 100 0 0 100c100,0 200,0 300,0z"/>
 </g>
</svg>
