<?xml version="1.0" encoding="UTF-8"?>
<!DOCTYPE svg PUBLIC "-//W3C//DTD SVG 1.1//EN" "http://www.w3.org/Graphics/SVG/1.1/DTD/svg11.dtd">
<!-- Creator: CorelDRAW X7 -->
<svg xmlns="http://www.w3.org/2000/svg" xml:space="preserve" version="1.1" style="shape-rendering:geometricPrecision; text-rendering:geometricPrecision; image-rendering:optimizeQuality; fill-rule:evenodd; clip-rule:evenodd"
viewBox="0 0 4400 4400"
 xmlns:xlink="http://www.w3.org/1999/xlink">
 <defs>
  <style type="text/css">
   <![CDATA[
    .fil2 {fill:none}
    .fil1 {fill:#5FC8D1}
    .fil0 {fill:#D1685F}
   ]]>
  </style>
 </defs>
 <g id="Слой_x0020_1">
  <metadata id="CorelCorpID_0Corel-Layer"/>
  <path class="fil0" d="M3592 0l208 0 0 600 -200 0 0 200 200 0 0 200 200 0 0 200 200 0 0 200 -200 0 0 1200c-733,0 -1467,0 -2200,0l0 -1200 -200 0 0 -200 200 0 0 -200 200 0 0 -200 200 0 0 -200 200 0 0 -200 200 0 0 -200 200 0 0 -200 200 0 0 200 200 0 0 200 200 0 0 200 192 0 0 -600zm-192 1500l0 900 400 0 0 -1200 -200 0 0 -200 -200 0 0 -200 -200 0 0 -200 -200 0 0 -200 -200 0 0 200 -200 0 0 200 -200 0 0 200 -200 0 0 200 -200 0 0 1200 400 0 0 -900c333,0 667,0 1000,0zm-200 200l-600 0 0 700 600 0 0 -700z"/>
  <path class="fil1" d="M1400 1800l200 0 0 200 200 0 0 200 200 0 0 200 200 0 200 0 0 -200 -200 0 0 200 0 200 200 0 0 200 200 0 0 200 200 0 0 200 -200 0 -200 0 0 200 200 0 0 -200 0 -200 -200 0 0 -200 -200 0 0 -200 -200 0 0 -200 -200 0 0 -200 -200 0 0 -200 -200 0 -200 0 0 200 -200 0 0 200 -200 0 0 200 -200 0 0 200 -200 0 0 200 -200 0 0 200 200 0 0 200 200 0 0 -200 -200 0 0 -200 200 0 0 -200 200 0 0 -200 200 0 0 -200 200 0 0 -200 200 0 0 -200 0 -200zm1200 2200l-200 0 0 200 -200 0 0 200 200 0 0 -200 200 0 0 -200zm-600 200l-200 0 0 200 200 0 0 -200zm-800 0l-200 0 0 200 200 0 0 -200zm-600 -200l-200 0 0 200 200 0 0 200 200 0 0 -200 -200 0 0 -200zm2000 -400l-200 0 0 200 200 0 0 -200zm-600 200l-200 0 0 200 200 0 0 -200zm-800 0l-200 0 0 200 200 0 0 -200zm-600 -200l-200 0 0 200 200 0 0 -200zm1400 -200l-200 0 0 -200 -200 0 0 200 200 0 0 200 200 0 0 -200zm400 -1600l-200 0 0 200 200 0 0 -200zm-800 2400l-200 0 0 200 200 0 0 -200zm-200 -1000l-200 0 0 200 -200 0 0 200 200 0 0 -200 200 0 0 -200z"/>
  <rect class="fil2" width="4400" height="4400"/>
 </g>
</svg>
