<?xml version="1.0" encoding="UTF-8"?>
<!DOCTYPE svg PUBLIC "-//W3C//DTD SVG 1.1//EN" "http://www.w3.org/Graphics/SVG/1.1/DTD/svg11.dtd">
<!-- Creator: CorelDRAW X7 -->
<svg xmlns="http://www.w3.org/2000/svg" xml:space="preserve" version="1.1" style="shape-rendering:geometricPrecision; text-rendering:geometricPrecision; image-rendering:optimizeQuality; fill-rule:evenodd; clip-rule:evenodd"
viewBox="0 0 4400 4400"
 xmlns:xlink="http://www.w3.org/1999/xlink">
 <defs>
  <style type="text/css">
   <![CDATA[
    .fil0 {fill:#5FC8D1}
    .fil1 {fill:#5FD1A1}
    .fil2 {fill:#9A9A9A}
    .fil4 {fill:#D1685F}
    .fil3 {fill:#D1A15F}
   ]]>
  </style>
 </defs>
 <g id="Слой_x0020_1">
  <metadata id="CorelCorpID_0Corel-Layer"/>
  <polygon class="fil0" points="4400,1200 4200,1200 4200,800 4000,800 4000,600 3800,600 3800,400 3600,400 3600,200 3200,200 3200,0 1200,0 1200,200 800,200 800,400 600,400 600,600 400,600 400,800 200,800 200,1200 0,1200 0,3200 200,3200 200,3600 400,3600 400,3800 600,3800 600,4000 800,4000 800,4200 1200,4200 1200,4400 3200,4400 3200,4200 3600,4200 3600,4000 3800,4000 3800,3800 4000,3800 4000,3600 4200,3600 4200,3200 4400,3200 "/>
  <path class="fil1" d="M1400 1700l0 200 100 0 0 -100 200 0 0 100 200 0 0 100 300 0 0 100 200 0 0 200 100 0 0 200 200 0 0 -200 100 0 0 -100 100 0 0 -100 100 0 0 100 100 0 0 200 100 0 0 100 100 0 0 -100 100 0 0 -100 100 0 0 -200 200 0 0 -400 -100 0 0 -100 -100 0 0 -100 200 0 0 100 200 0 0 -400 -100 0 0 -100 -100 0 0 -100 300 0 0 -100 100 0 0 300 100 0 100 0 0 100 -100 0 0 -100 0 -400 -200 0 0 -100 -900 0 0 -100 -200 0 0 100 -200 0 0 -100 -200 0 0 -100 -200 0 0 100 -200 0 0 100 -1200 0 0 100 -100 0 0 100 -100 0 0 100 100 0 0 100 -100 0 0 100 -100 0 0 -100 -300 0 0 100 100 0 0 100 100 0 0 200 500 0 0 100 100 0 0 100c100,0 200,0 300,0zm-900 -200l-200 0 0 200 200 0 0 -200zm3200 1400l200 0 0 -100 100 0 0 100 0 100 -100 0 -200 0 0 -100 -100 0 -100 0 0 -100 100 0 0 -100 100 0 0 100 0 100zm300 -200l100 0 0 -100 0 -100 -100 0 -100 0 0 100 0 100 -100 0 0 -100 100 0 100 0 0 100zm-500 400l200 0 0 100 -200 0 0 -100zm-200 -100l100 0 0 100 -100 0 0 -100zm-600 -400l100 0 0 100 -100 0 0 -100zm1400 -800l-200 0 0 100 200 0 0 -100zm100 -300l-100 0 -100 0 0 -100 100 0 0 100 0 200 100 0 0 -200z"/>
  <path class="fil2" d="M2600 100l-700 0 0 -100 700 0 0 100zm-1000 4300l700 0 0 -100 -400 0 0 -100 -200 0 0 100 -100 0 0 100z"/>
  <polygon class="fil3" points="100,2700 700,2700 700,2900 800,2900 800,3100 900,3100 900,3300 800,3300 800,3600 900,3600 900,4100 1100,4100 1100,4000 1200,4000 1200,3900 1300,3900 1300,3700 1400,3700 1400,3600 1500,3600 1500,3300 1600,3300 1600,2900 1700,2900 1700,2700 1800,2700 1800,2500 1700,2500 1700,2400 1600,2400 1600,2300 1500,2300 1500,1900 900,1900 900,1800 800,1800 800,1700 300,1700 300,1800 200,1800 200,1900 100,1900 "/>
  <polygon class="fil3" points="4000,3200 4100,3200 4100,3300 4200,3300 4200,3600 4000,3600 4000,3800 3800,3800 3800,3900 3700,3900 3700,4000 3600,4000 3600,3900 3500,3900 3500,3500 3800,3500 3800,3400 3900,3400 3900,3300 4000,3300 "/>
  <polygon class="fil4" points="1500,1800 1700,1800 1700,2000 1800,2000 1800,2100 2100,2100 2100,2300 2000,2300 2000,2400 1700,2400 1700,2200 1600,2200 1600,2100 1500,2100 "/>
 </g>
</svg>
