<?xml version="1.0" encoding="UTF-8"?>
<!DOCTYPE svg PUBLIC "-//W3C//DTD SVG 1.1//EN" "http://www.w3.org/Graphics/SVG/1.1/DTD/svg11.dtd">
<!-- Creator: CorelDRAW X7 -->
<svg xmlns="http://www.w3.org/2000/svg" xml:space="preserve" version="1.1" style="shape-rendering:geometricPrecision; text-rendering:geometricPrecision; image-rendering:optimizeQuality; fill-rule:evenodd; clip-rule:evenodd"
viewBox="0 0 4400 4400"
 xmlns:xlink="http://www.w3.org/1999/xlink">
 <defs>
  <style type="text/css">
   <![CDATA[
    .fil1 {fill:none}
    .fil0 {fill:#D0D0D0}
   ]]>
  </style>
 </defs>
 <g id="Слой_x0020_1">
  <metadata id="CorelCorpID_0Corel-Layer"/>
  <path class="fil0" d="M1400 3200l-200 0 0 200 -200 0 0 200 200 0 0 -200 200 0 0 -200zm800 -1000l200 0 0 -200 -200 0 0 -200 200 0 0 -300c333,0 667,0 1000,0l0 900 400 0 0 -1200 -200 0 0 -200 -200 0 0 -200 -200 0 0 -200 -200 0 0 -200 -200 0 0 200 -200 0 0 200 -200 0 0 200 -200 0 0 200 -200 0 0 1200 200 0 0 -200zm-800 -400l200 0 0 200 200 0 0 -600 -200 0 0 -200 200 0 0 -200 200 0 0 -200 200 0 0 -200 200 0 0 -200 200 0 0 -200 200 0 0 -200 200 0 0 200 200 0 0 200 200 0 0 200 192 0 0 -600 208 0 0 600 -200 0 0 200 200 0 0 200 200 0 0 200 200 0 0 200 -200 0 0 1200 -1600 0 0 200 200 0 0 200 200 0 0 200 -200 0 -200 0 0 200 200 0 0 -200 0 -200 -200 0 0 -200 -200 0 0 -200c-133,0 -267,0 -400,0l0 -400 -200 0 0 -200 -200 0 -200 0 0 200 -200 0 0 200 -200 0 0 200 -200 0 0 200 -200 0 0 200 -200 0 0 200 200 0 0 200 200 0 0 -200 -200 0 0 -200 200 0 0 -200 200 0 0 -200 200 0 0 -200 200 0 0 -200 200 0 0 -200 0 -200zm1800 -100l-600 0 0 700 600 0 0 -700zm-600 2300l-200 0 0 200 -200 0 0 200 200 0 0 -200 200 0 0 -200zm-600 200l-200 0 0 200 200 0 0 -200zm-800 0l-200 0 0 200 200 0 0 -200zm-600 -200l-200 0 0 200 200 0 0 200 200 0 0 -200 -200 0 0 -200zm2000 -400l-200 0 0 200 200 0 0 -200zm-600 200l-200 0 0 200 200 0 0 -200zm-800 0l-200 0 0 200 200 0 0 -200zm-600 -200l-200 0 0 200 200 0 0 -200zm1400 -200l-200 0 0 -200 -200 0 0 200 200 0 0 200 200 0 0 -200zm-400 800l-200 0 0 200 200 0 0 -200z"/>
  <rect class="fil1" width="4400" height="4400"/>
 </g>
</svg>
