<?xml version="1.0" encoding="UTF-8"?>
<!DOCTYPE svg PUBLIC "-//W3C//DTD SVG 1.1//EN" "http://www.w3.org/Graphics/SVG/1.1/DTD/svg11.dtd">
<!-- Creator: CorelDRAW X7 -->
<svg xmlns="http://www.w3.org/2000/svg" xml:space="preserve" version="1.1" style="shape-rendering:geometricPrecision; text-rendering:geometricPrecision; image-rendering:optimizeQuality; fill-rule:evenodd; clip-rule:evenodd"
viewBox="0 0 4400 4400"
 xmlns:xlink="http://www.w3.org/1999/xlink">
 <defs>
  <style type="text/css">
   <![CDATA[
    .fil1 {fill:#5FC8D1}
    .fil0 {fill:#D1685F}
   ]]>
  </style>
 </defs>
 <g id="Слой_x0020_1">
  <metadata id="CorelCorpID_0Corel-Layer"/>
  <path class="fil0" d="M2800 1800l0 -200 200 0 0 -1000 -200 0 0 -200 -1200 0 0 200 -200 0 0 1000 200 0 0 200 200 0 0 200 800 0 0 -200 200 0zm-1600 0l200 0 0 200 200 0 0 200 -200 0 0 200 -200 0 0 200 -200 0 0 200 -200 0 0 200 -200 0 0 200 -200 0 0 200 -200 0 0 200 -200 0 0 400 0 400 4400 0 0 -400 0 -400 -200 0 0 -200 -200 0 0 -200 -200 0 0 -200 -200 0 0 -200 -200 0 0 -200 -200 0 0 -200 -200 0 0 -200 -200 0 0 -200 200 0 0 -200 200 0 0 -200 200 0 0 -1000 -200 0 0 -200 -200 0 0 -200 -200 0 0 -200 -1200 0 0 200 -200 0 0 200 -200 0 0 200 -200 0 0 1000 200 0 0 200zm2800 2200l-3600 0 0 -200 200 0 0 -200 200 0 0 -200 200 0 0 -200 200 0 0 -200 200 0 0 -200 200 0 0 -200 200 0 0 -200 800 0 0 200 200 0 0 200 200 0 0 200 200 0 0 200 200 0 0 200 200 0 0 200 200 0 0 200 200 0 0 200z"/>
  <path class="fil1" d="M1900 2800l200 0 0 -200 200 0 0 1000 200 0 0 200c-200,0 -400,0 -600,0l0 -200 200 0 0 -600 -200 0 0 -200z"/>
 </g>
</svg>
