<?xml version="1.0" encoding="UTF-8"?>
<!DOCTYPE svg PUBLIC "-//W3C//DTD SVG 1.1//EN" "http://www.w3.org/Graphics/SVG/1.1/DTD/svg11.dtd">
<!-- Creator: CorelDRAW X7 -->
<svg xmlns="http://www.w3.org/2000/svg" xml:space="preserve" version="1.1" style="shape-rendering:geometricPrecision; text-rendering:geometricPrecision; image-rendering:optimizeQuality; fill-rule:evenodd; clip-rule:evenodd"
viewBox="0 0 4400 4400"
 xmlns:xlink="http://www.w3.org/1999/xlink">
 <defs>
  <style type="text/css">
   <![CDATA[
    .fil0 {fill:#5FD1A1}
   ]]>
  </style>
 </defs>
 <g id="Слой_x0020_1">
  <metadata id="CorelCorpID_0Corel-Layer"/>
  <path class="fil0" d="M800 800l2800 0 0 200 -2800 0 0 -200zm3000 3400l0 200 200 0 0 -600 0 -1000 200 0 0 -200 200 0 0 -2200 -200 0 0 -200 -200 0 0 -200 -3600 0 0 200 -200 0 0 200 -200 0 0 2200 200 0 0 200 200 0 0 200 2200 0 0 200 200 0 0 200 200 0 0 200 200 0 0 200 200 0 0 200 200 0 0 200 200 0zm-3000 -3000l2800 0 0 200 -2800 0 0 -200zm0 800l2800 0 0 200 -2800 0 0 -200zm2800 600l200 0 0 -200 200 0 0 -1800 -200 0 0 -200 -3200 0 0 200 -200 0 0 1800 200 0 0 200 2200 0 0 200 200 0 0 200 200 0 0 200 200 0 0 200 200 0 0 -800zm-2800 -1000l2800 0 0 200 -2800 0 0 -200z"/>
 </g>
</svg>
