<?xml version="1.0" encoding="UTF-8"?>
<!DOCTYPE svg PUBLIC "-//W3C//DTD SVG 1.1//EN" "http://www.w3.org/Graphics/SVG/1.1/DTD/svg11.dtd">
<!-- Creator: CorelDRAW X7 -->
<svg xmlns="http://www.w3.org/2000/svg" xml:space="preserve" version="1.1" style="shape-rendering:geometricPrecision; text-rendering:geometricPrecision; image-rendering:optimizeQuality; fill-rule:evenodd; clip-rule:evenodd"
viewBox="0 0 4400 4400"
 xmlns:xlink="http://www.w3.org/1999/xlink">
 <defs>
  <style type="text/css">
   <![CDATA[
    .fil1 {fill:none}
    .fil0 {fill:#D0D0D0}
   ]]>
  </style>
 </defs>
 <g id="Слой_x0020_1">
  <metadata id="CorelCorpID_0Corel-Layer"/>
  <path class="fil0" d="M900 1200l1900 0 0 -200 -200 0 0 -200 -200 0 0 -200 -200 0 -1400 0 0 3400 1200 0 0 -200 100 0 0 -2200 -100 0 0 -200 -1100 0 0 -200zm2100 0l500 0 0 200 -1100 0 0 200 -100 0 0 2200 100 0 0 200 1200 0 0 -3400 -200 0 0 200 -200 0 0 200 -200 0 0 200zm0 -400l-200 0 0 200 200 0 0 -200zm400 -400l200 0 0 -400 400 0c0,1467 0,2933 0,4400l-400 0 0 -200 -2800 0 0 200 -400 0 0 -4400 400 0 0 400 1400 0 200 0 0 -400 1000 0 0 400zm-200 200l-600 0 0 -400 600 0 0 400z"/>
  <rect class="fil1" width="4400" height="4400"/>
 </g>
</svg>
