<?xml version="1.0" encoding="UTF-8"?>
<!DOCTYPE svg PUBLIC "-//W3C//DTD SVG 1.1//EN" "http://www.w3.org/Graphics/SVG/1.1/DTD/svg11.dtd">
<!-- Creator: CorelDRAW X7 -->
<svg xmlns="http://www.w3.org/2000/svg" xml:space="preserve" version="1.1" style="shape-rendering:geometricPrecision; text-rendering:geometricPrecision; image-rendering:optimizeQuality; fill-rule:evenodd; clip-rule:evenodd"
viewBox="0 0 4400 4400"
 xmlns:xlink="http://www.w3.org/1999/xlink">
 <defs>
  <style type="text/css">
   <![CDATA[
    .fil1 {fill:none}
    .fil0 {fill:#D0D0D0}
   ]]>
  </style>
 </defs>
 <g id="Слой_x0020_1">
  <metadata id="CorelCorpID_0Corel-Layer"/>
  <path class="fil0" d="M1800 2700l0 -400 -200 0 0 -400 -200 0 0 -1300 200 0 0 -200 1200 0 0 200 200 0 0 1300 -200 0 0 400 -200 0 0 400 -300 0 0 -1400 -200 0 0 1400 -300 0zm800 1600l-300 0 0 100 -200 0 0 -100 -300 0 0 -200 -200 0 0 -1200 0 -400 -200 0 0 -400 -200 0 0 -400 -200 0 0 -1100 200 0 0 -200 200 0 0 -200 200 0 0 -200 1200 0 0 200 200 0 0 200 200 0 0 200 200 0 0 1100 -200 0 0 400 -200 0 0 400 -200 0 0 400 0 1200 -200 0 0 200zm-800 -1400l0 200 800 0 0 -200 -800 0zm0 400l0 200 800 0 0 -200 -800 0zm0 400l0 200 800 0 0 -200 -800 0z"/>
  <rect class="fil1" width="4400" height="4400"/>
 </g>
</svg>
