<?xml version="1.0" encoding="UTF-8"?>
<!DOCTYPE svg PUBLIC "-//W3C//DTD SVG 1.1//EN" "http://www.w3.org/Graphics/SVG/1.1/DTD/svg11.dtd">
<!-- Creator: CorelDRAW X7 -->
<svg xmlns="http://www.w3.org/2000/svg" xml:space="preserve" version="1.1" style="shape-rendering:geometricPrecision; text-rendering:geometricPrecision; image-rendering:optimizeQuality; fill-rule:evenodd; clip-rule:evenodd"
viewBox="0 0 4400 4400"
 xmlns:xlink="http://www.w3.org/1999/xlink">
 <defs>
  <style type="text/css">
   <![CDATA[
    .fil4 {fill:none}
    .fil3 {fill:black}
    .fil2 {fill:#9E9E9E}
    .fil0 {fill:#D1A15F}
    .fil1 {fill:#ED6666}
   ]]>
  </style>
 </defs>
 <g id="Слой_x0020_1">
  <metadata id="CorelCorpID_0Corel-Layer"/>
  <path class="fil0" d="M1800 2700l0 -400 -200 0 0 -400 -200 0 0 -1300 200 0 0 -200 1200 0 0 200 200 0 0 1300 -200 0 0 400 -200 0 0 400 -800 0zm-200 -2700l0 200 -200 0 0 200 -200 0 0 200 -200 0 0 1100 200 0 0 400 200 0 0 400 200 0 0 400c400,0 800,0 1200,0l0 -400 200 0 0 -400 200 0 0 -400 200 0 0 -1100 -200 0 0 -200 -200 0 0 -200 -200 0 0 -200 -1200 0z"/>
  <rect class="fil1" x="2100" y="1300" width="200" height="1400"/>
  <path class="fil2" d="M1600 2900l200 0 0 200 800 0 0 -200 200 0 0 1200c-400,0 -800,0 -1200,0l0 -1200zm200 400l0 200 800 0 0 -200 -800 0zm0 400l0 200 800 0 0 -200 -800 0z"/>
  <polygon class="fil3" points="2600,4300 2300,4300 2300,4400 2100,4400 2100,4300 1800,4300 1800,4100 2600,4100 "/>
  <rect class="fil4" width="4400" height="4400"/>
 </g>
</svg>
