<?xml version="1.0" encoding="UTF-8"?>
<!DOCTYPE svg PUBLIC "-//W3C//DTD SVG 1.1//EN" "http://www.w3.org/Graphics/SVG/1.1/DTD/svg11.dtd">
<!-- Creator: CorelDRAW X7 -->
<svg xmlns="http://www.w3.org/2000/svg" xml:space="preserve" version="1.1" style="shape-rendering:geometricPrecision; text-rendering:geometricPrecision; image-rendering:optimizeQuality; fill-rule:evenodd; clip-rule:evenodd"
viewBox="0 0 4400 4400"
 xmlns:xlink="http://www.w3.org/1999/xlink">
 <defs>
  <style type="text/css">
   <![CDATA[
    .fil4 {fill:none}
    .fil3 {fill:#5FD1A1}
    .fil0 {fill:#9B9B9B}
    .fil1 {fill:#D1685F}
    .fil2 {fill:#D1A15F}
   ]]>
  </style>
 </defs>
 <g id="Слой_x0020_1">
  <metadata id="CorelCorpID_0Corel-Layer"/>
  <path class="fil0" d="M400 0l3600 0 0 4400 -3600 0 0 -4400zm3200 4000l-2800 0 0 -3600 2800 0 0 3600z"/>
  <rect class="fil1" x="1000" y="600" width="2400" height="400"/>
  <rect class="fil2" x="1000" y="1200" width="1200" height="1400"/>
  <path class="fil3" d="M2400 1200l1000 0 0 200 -1000 0 0 -200zm0 400l1000 0 0 200 -1000 0 0 -200zm0 400l1000 0 0 200 -1000 0 0 -200zm0 400l1000 0 0 200 -1000 0 0 -200zm-1400 400l2400 0 0 200 -2400 0 0 -200zm0 400l2400 0 0 200 -2400 0 0 -200zm0 400l2400 0 0 200 -2400 0 0 -200z"/>
  <rect class="fil4" width="4400" height="4400"/>
 </g>
</svg>
