<?xml version="1.0" encoding="UTF-8"?>
<!DOCTYPE svg PUBLIC "-//W3C//DTD SVG 1.1//EN" "http://www.w3.org/Graphics/SVG/1.1/DTD/svg11.dtd">
<!-- Creator: CorelDRAW X7 -->
<svg xmlns="http://www.w3.org/2000/svg" xml:space="preserve" version="1.1" style="shape-rendering:geometricPrecision; text-rendering:geometricPrecision; image-rendering:optimizeQuality; fill-rule:evenodd; clip-rule:evenodd"
viewBox="0 0 4400 4400"
 xmlns:xlink="http://www.w3.org/1999/xlink">
 <defs>
  <style type="text/css">
   <![CDATA[
    .fil1 {fill:none}
    .fil0 {fill:#D0D0D0}
   ]]>
  </style>
 </defs>
 <g id="Слой_x0020_1">
  <metadata id="CorelCorpID_0Corel-Layer"/>
  <path class="fil0" d="M400 0l3600 0 0 4400 -3600 0 0 -4400zm2000 1200l1000 0 0 200 -1000 0 0 -200zm0 400l1000 0 0 200 -1000 0 0 -200zm0 400l1000 0 0 200 -1000 0 0 -200zm0 400l1000 0 0 200 -1000 0 0 -200zm-1400 400l2400 0 0 200 -2400 0 0 -200zm0 400l2400 0 0 200 -2400 0 0 -200zm0 400l2400 0 0 200 -2400 0 0 -200zm0 -2400l1200 0 0 1400 -1200 0 0 -1400zm0 -600l2400 0 0 400 -2400 0 0 -400zm2600 3400l-2800 0 0 -3600 2800 0 0 3600z"/>
  <rect class="fil1" width="4400" height="4400"/>
 </g>
</svg>
