<?xml version="1.0" encoding="UTF-8"?>
<!DOCTYPE svg PUBLIC "-//W3C//DTD SVG 1.1//EN" "http://www.w3.org/Graphics/SVG/1.1/DTD/svg11.dtd">
<!-- Creator: CorelDRAW X7 -->
<svg xmlns="http://www.w3.org/2000/svg" xml:space="preserve" version="1.1" style="shape-rendering:geometricPrecision; text-rendering:geometricPrecision; image-rendering:optimizeQuality; fill-rule:evenodd; clip-rule:evenodd"
viewBox="0 0 4400 4400"
 xmlns:xlink="http://www.w3.org/1999/xlink">
 <defs>
  <style type="text/css">
   <![CDATA[
    .fil2 {fill:black}
    .fil3 {fill:#5FC8D1}
    .fil1 {fill:#9E9E9E}
    .fil0 {fill:#D1685F}
    .fil4 {fill:#D1A15F}
   ]]>
  </style>
 </defs>
 <g id="Слой_x0020_1">
  <metadata id="CorelCorpID_0Corel-Layer"/>
  <path class="fil0" d="M3300 4400l-200 0 0 -200 -200 0 0 -800 200 0 0 -200 400 0 0 -900 -400 0 0 -200 -200 0 0 -800 200 0 0 -200 200 0 0 400 -200 0 0 400 200 0 0 200 700 0 0 -200 200 0 0 -400 -200 0 0 -400 200 0 0 200 200 0 0 800 -200 0 0 200 -300 0 0 900 300 0 0 200 200 0 0 800 -200 0 0 200 -200 0 0 -400 200 0 0 -400 -200 0 0 -200 -700 0 0 200 -200 0 0 400 200 0 0 400zm-1600 -3800l400 0 0 200 -200 0 0 100 -100 0 0 -100 -100 0 0 -200z"/>
  <path class="fil1" d="M200 3000l2300 0 0 -2600 -200 0 0 -200 200 0 0 -200 200 0 0 3200c-900,0 -1800,0 -2700,0l0 -3200 200 0 0 200 1300 0 0 200 -1300 0 0 2600z"/>
  <path class="fil2" d="M2500 3200l200 0 0 200 -200 0 0 -200zm-1000 -3200l800 0 0 600 -800 0 0 -600zm200 200l400 0 0 200 -400 0 0 -200zm-1700 3000l200 0 0 200 -200 0 0 -200z"/>
  <polygon class="fil3" points="1200,2800 1300,2800 1300,2600 1200,2600 1200,2400 1300,2400 1300,2200 1200,2200 1200,2000 1300,2000 1300,1800 1200,1800 1200,1600 1300,1600 1300,1400 1200,1400 1200,1200 1400,1200 1400,1400 1500,1400 1500,1600 1400,1600 1400,1800 1500,1800 1500,2000 1400,2000 1400,2200 1500,2200 1500,2400 1400,2400 1400,2600 1500,2600 1500,2800 1400,2800 1400,3000 1200,3000 "/>
  <polygon class="fil4" points="300,900 2400,900 2400,1100 1400,1100 1400,1200 1200,1200 1200,1100 300,1100 "/>
 </g>
</svg>
