<?xml version="1.0" encoding="UTF-8"?>
<!DOCTYPE svg PUBLIC "-//W3C//DTD SVG 1.1//EN" "http://www.w3.org/Graphics/SVG/1.1/DTD/svg11.dtd">
<!-- Creator: CorelDRAW X7 -->
<svg xmlns="http://www.w3.org/2000/svg" xml:space="preserve" version="1.1" style="shape-rendering:geometricPrecision; text-rendering:geometricPrecision; image-rendering:optimizeQuality; fill-rule:evenodd; clip-rule:evenodd"
viewBox="0 0 4400 4400"
 xmlns:xlink="http://www.w3.org/1999/xlink">
 <defs>
  <style type="text/css">
   <![CDATA[
    .fil0 {fill:#D0D0D0}
   ]]>
  </style>
 </defs>
 <g id="Слой_x0020_1">
  <metadata id="CorelCorpID_0Corel-Layer"/>
  <path class="fil0" d="M3300 4400l-200 0 0 -200 -200 0 0 -800 200 0 0 -200 400 0 0 -900 -400 0 0 -200 -200 0 0 -800 200 0 0 -200 200 0 0 400 -200 0 0 400 200 0 0 200 700 0 0 -200 200 0 0 -400 -200 0 0 -400 200 0 0 200 200 0 0 800 -200 0 0 200 -300 0 0 900 300 0 0 200 200 0 0 800 -200 0 0 200 -200 0 0 -400 200 0 0 -400 -200 0 0 -200 -700 0 0 200 -200 0 0 400 200 0 0 400zm-3000 -3500l1500 0 0 -100 -100 0 0 -200 -200 0 0 -200 -1300 0 0 2600 1000 0 0 -200 100 0 0 -200 -100 0 0 -200 100 0 0 -200 -100 0 0 -200 100 0 0 -200 -100 0 0 -200 100 0 0 -200 -100 0 0 -300 -900 0 0 -200zm1600 0l500 0 0 200 -1000 0 0 300 100 0 0 200 -100 0 0 200 100 0 0 200 -100 0 0 200 100 0 0 200 -100 0 0 200 100 0 0 200 -100 0 0 200 1100 0 0 -2600 -200 0 0 200 -200 0 0 200 -200 0 0 100zm800 2500l-200 0 0 -200 -2300 0 0 200 -200 0 0 -3400 200 0 0 200 1300 0 0 -200 800 0 0 200 200 0 0 -200 200 0 0 3400zm-1000 -3200l400 0 0 200 -400 0 0 -200z"/>
 </g>
</svg>
