<?xml version="1.0" encoding="UTF-8"?>
<!DOCTYPE svg PUBLIC "-//W3C//DTD SVG 1.1//EN" "http://www.w3.org/Graphics/SVG/1.1/DTD/svg11.dtd">
<!-- Creator: CorelDRAW X7 -->
<svg xmlns="http://www.w3.org/2000/svg" xml:space="preserve" version="1.1" style="shape-rendering:geometricPrecision; text-rendering:geometricPrecision; image-rendering:optimizeQuality; fill-rule:evenodd; clip-rule:evenodd"
viewBox="0 0 4400 4400"
 xmlns:xlink="http://www.w3.org/1999/xlink">
 <defs>
  <style type="text/css">
   <![CDATA[
    .fil0 {fill:#D0D0D0}
   ]]>
  </style>
 </defs>
 <g id="Слой_x0020_1">
  <metadata id="CorelCorpID_0Corel-Layer"/>
  <path class="fil0" d="M1800 3300l0 -1800 2400 0 0 1800c-800,0 -1600,0 -2400,0zm-1600 -300l1000 0 0 -200 100 0 0 -200 -100 0 0 -200 100 0 0 -200 -100 0 0 -200 100 0 0 -200 -100 0 0 -200 100 0 0 -200 -100 0 0 -200 0 -100 -900 0 0 -200 1500 0 0 -100 -100 0 0 -200 -200 0 0 -200 -1300 0 0 2600zm1700 -2100l500 0 0 200 -1000 0 0 100 0 200 100 0 0 200 -100 0 0 200 100 0 0 200 -100 0 0 200 100 0 0 200 -100 0 0 200 100 0 0 200 -100 0 0 200 200 0 0 -1700 900 0 0 -900 -200 0 0 200 -200 0 0 200 -200 0 0 100zm-300 2300l-1400 0 0 200 -200 0 0 -200 0 -3200 200 0 0 200 1300 0 0 -200 800 0 0 200 200 0 0 -200 200 0 0 1300 1700 0 0 2400 -1200 0 0 500 800 0 0 200 -2000 0 0 -200 800 0 0 -500 -1200 0 0 -500zm100 -3000l400 0 0 200 -400 0 0 -200z"/>
 </g>
</svg>
