<?xml version="1.0" encoding="UTF-8"?>
<!DOCTYPE svg PUBLIC "-//W3C//DTD SVG 1.1//EN" "http://www.w3.org/Graphics/SVG/1.1/DTD/svg11.dtd">
<!-- Creator: CorelDRAW X7 -->
<svg xmlns="http://www.w3.org/2000/svg" xml:space="preserve" version="1.1" style="shape-rendering:geometricPrecision; text-rendering:geometricPrecision; image-rendering:optimizeQuality; fill-rule:evenodd; clip-rule:evenodd"
viewBox="0 0 4400 4400"
 xmlns:xlink="http://www.w3.org/1999/xlink">
 <defs>
  <style type="text/css">
   <![CDATA[
    .fil0 {fill:#D0D0D0}
   ]]>
  </style>
 </defs>
 <g id="Слой_x0020_1">
  <metadata id="CorelCorpID_0Corel-Layer"/>
  <g>
   <path class="fil0" d="M2400 2900l0 100 -200 0 0 200 -100 0 0 100 -200 0 0 200 -100 0 0 100 -200 0 0 200 -100 0 0 100 -200 0 0 200 2800 0 0 -200 -200 0 0 -100 -100 0 0 -200 -200 0 0 -100 -100 0 0 -200 -200 0 0 -100 -100 0 0 -200 -200 0 0 -100 -600 0zm-700 -2700l400 0 0 200 -400 0 0 -200zm700 2300l0 -100 -200 0 0 -200 -100 0 0 -700 100 0 0 -200 1000 0 0 200 100 0 0 700 -100 0 0 200 -200 0 0 100 -600 0zm100 -1500l0 -600 -200 0 0 200 -200 0 0 200 -200 0 0 100 500 0 0 100 100 0zm-700 -100l0 -100 -100 0 0 -200 -200 0 0 -200 -1300 0 0 2600 1000 0 0 -200 100 0 0 -200 -100 0 0 -200 100 0 0 -200 -100 0 0 -200 100 0 0 -200 -100 0 0 -200 100 0 0 -200 -100 0 0 -200 0 -100 -900 0 0 -200 1500 0zm-400 2100l500 0 0 -100 200 0 0 -200 100 0 0 -200 -100 0 0 -100 -200 0 0 -200 -100 0 0 -700 100 0 0 -200 200 0 0 -100 100 0 0 -100 -800 0 0 100 0 200 100 0 0 200 -100 0 0 200 100 0 0 200 -100 0 0 200 100 0 0 200 -100 0 0 200 100 0 0 200 -100 0 0 200zm3000 1400l-3400 0 0 -300 0 -300 200 0 0 -200 100 0 0 -100 200 0 0 -200 100 0 0 -100 -1400 0 0 200 -200 0 0 -3400 200 0 0 200 1300 0 0 -200 800 0 0 200 200 0 0 -200 200 0 0 1000 500 0 0 200 100 0 0 100 200 0 0 200 100 0 0 700 -100 0 0 200 -200 0 0 100 -100 0 0 200 100 0 0 200 200 0 0 100 100 0 0 200 200 0 0 100 100 0 0 200 200 0 0 100 100 0 0 200 200 0 0 300 0 300 0 0z"/>
  </g>
 </g>
</svg>
