<?xml version="1.0" encoding="UTF-8"?>
<!DOCTYPE svg PUBLIC "-//W3C//DTD SVG 1.1//EN" "http://www.w3.org/Graphics/SVG/1.1/DTD/svg11.dtd">
<!-- Creator: CorelDRAW X7 -->
<svg xmlns="http://www.w3.org/2000/svg" xml:space="preserve" version="1.1" style="shape-rendering:geometricPrecision; text-rendering:geometricPrecision; image-rendering:optimizeQuality; fill-rule:evenodd; clip-rule:evenodd"
viewBox="0 0 4400 4400"
 xmlns:xlink="http://www.w3.org/1999/xlink">
 <defs>
  <style type="text/css">
   <![CDATA[
    .fil0 {fill:#9E9E9E}
    .fil1 {fill:#D1A15F}
   ]]>
  </style>
 </defs>
 <g id="Слой_x0020_1">
  <metadata id="CorelCorpID_0Corel-Layer"/>
  <path class="fil0" d="M0 0l200 0 0 4200 4000 0 0 -4200 200 0 0 4400c-1467,0 -2933,0 -4400,0l0 -4400z"/>
  <rect class="fil1" x="200" y="4000" width="200" height="200"/>
  <rect class="fil1" x="600" y="4000" width="200" height="200"/>
  <rect class="fil1" x="1400" y="4000" width="200" height="200"/>
  <rect class="fil1" x="1800" y="4000" width="200" height="200"/>
  <rect class="fil1" x="2400" y="3800" width="200" height="200"/>
  <rect class="fil1" x="2600" y="4000" width="200" height="200"/>
  <rect class="fil1" x="3000" y="4000" width="200" height="200"/>
  <rect class="fil1" x="400" y="3800" width="200" height="200"/>
  <rect class="fil1" x="1200" y="3800" width="200" height="200"/>
  <rect class="fil1" x="800" y="3800" width="200" height="200"/>
  <rect class="fil1" x="1000" y="4000" width="200" height="200"/>
  <rect class="fil1" x="200" y="3200" width="200" height="200"/>
  <rect class="fil1" x="1000" y="2800" width="200" height="200"/>
  <rect class="fil1" x="2000" y="2600" width="200" height="200"/>
  <rect class="fil1" x="1000" y="2400" width="200" height="200"/>
  <rect class="fil1" x="2800" y="2200" width="200" height="200"/>
  <rect class="fil1" x="3200" y="2200" width="200" height="200"/>
  <rect class="fil1" x="1400" y="2000" width="200" height="200"/>
  <rect class="fil1" x="200" y="2000" width="200" height="200"/>
  <rect class="fil1" x="600" y="1600" width="200" height="200"/>
  <rect class="fil1" x="400" y="1000" width="200" height="200"/>
  <rect class="fil1" x="1600" y="1400" width="200" height="200"/>
  <rect class="fil1" x="3000" y="1600" width="200" height="200"/>
  <rect class="fil1" x="2600" y="1200" width="200" height="200"/>
  <rect class="fil1" x="4000" y="600" width="200" height="200"/>
  <rect class="fil1" x="2400" y="600" width="200" height="200"/>
  <rect class="fil1" x="2800" y="200" width="200" height="200"/>
  <rect class="fil1" x="2000" y="200" width="200" height="200"/>
  <rect class="fil1" x="200" y="400" width="200" height="200"/>
  <rect class="fil1" x="3600" y="3800" width="200" height="200"/>
  <rect class="fil1" x="3800" y="4000" width="200" height="200"/>
  <rect class="fil1" x="4000" y="3800" width="200" height="200"/>
  <rect class="fil1" x="4000" y="3400" width="200" height="200"/>
  <rect class="fil1" x="2000" y="3400" width="200" height="200"/>
  <rect class="fil1" x="3200" y="3400" width="200" height="200"/>
  <rect class="fil1" x="3400" y="4000" width="200" height="200"/>
  <rect class="fil1" x="1600" y="3800" width="200" height="200"/>
  <rect class="fil1" x="2800" y="3800" width="200" height="200"/>
  <rect class="fil1" x="200" y="3600" width="200" height="200"/>
  <rect class="fil1" x="600" y="3600" width="200" height="200"/>
  <rect class="fil1" x="1400" y="3600" width="200" height="200"/>
  <rect class="fil1" x="1800" y="3600" width="200" height="200"/>
  <rect class="fil1" x="2400" y="3400" width="200" height="200"/>
  <rect class="fil1" x="2600" y="3600" width="200" height="200"/>
  <rect class="fil1" x="3000" y="3200" width="200" height="200"/>
  <rect class="fil1" x="3000" y="3600" width="200" height="200"/>
  <rect class="fil1" x="3400" y="3200" width="200" height="200"/>
  <rect class="fil1" x="2200" y="3600" width="200" height="200"/>
  <rect class="fil1" x="2600" y="3200" width="200" height="200"/>
  <rect class="fil1" x="2200" y="4000" width="200" height="200"/>
  <rect class="fil1" x="1600" y="3400" width="200" height="200"/>
  <rect class="fil1" x="1600" y="3000" width="200" height="200"/>
  <rect class="fil1" x="4000" y="3000" width="200" height="200"/>
  <rect class="fil1" x="1800" y="3200" width="200" height="200"/>
  <rect class="fil1" x="2800" y="3400" width="200" height="200"/>
  <rect class="fil1" x="400" y="3400" width="200" height="200"/>
  <rect class="fil1" x="400" y="3000" width="200" height="200"/>
  <rect class="fil1" x="600" y="2800" width="200" height="200"/>
  <rect class="fil1" x="400" y="2600" width="200" height="200"/>
  <rect class="fil1" x="200" y="2400" width="200" height="200"/>
  <rect class="fil1" x="600" y="2400" width="200" height="200"/>
  <rect class="fil1" x="800" y="2600" width="200" height="200"/>
  <rect class="fil1" x="1200" y="2600" width="200" height="200"/>
  <rect class="fil1" x="1600" y="2600" width="200" height="200"/>
  <rect class="fil1" x="1800" y="2800" width="200" height="200"/>
  <rect class="fil1" x="1800" y="2800" width="200" height="200"/>
  <rect class="fil1" x="2200" y="2800" width="200" height="200"/>
  <rect class="fil1" x="2600" y="2800" width="200" height="200"/>
  <rect class="fil1" x="3000" y="2800" width="200" height="200"/>
  <rect class="fil1" x="3400" y="2800" width="200" height="200"/>
  <rect class="fil1" x="3800" y="2800" width="200" height="200"/>
  <rect class="fil1" x="3200" y="2600" width="200" height="200"/>
  <rect class="fil1" x="2400" y="2600" width="200" height="200"/>
  <rect class="fil1" x="2200" y="2400" width="200" height="200"/>
  <rect class="fil1" x="1400" y="2400" width="200" height="200"/>
  <rect class="fil1" x="3000" y="2400" width="200" height="200"/>
  <rect class="fil1" x="3400" y="2400" width="200" height="200"/>
  <rect class="fil1" x="3800" y="2400" width="200" height="200"/>
  <rect class="fil1" x="4000" y="2200" width="200" height="200"/>
  <rect class="fil1" x="3600" y="2200" width="200" height="200"/>
  <rect class="fil1" x="2400" y="2200" width="200" height="200"/>
  <rect class="fil1" x="2000" y="2200" width="200" height="200"/>
  <rect class="fil1" x="1600" y="2200" width="200" height="200"/>
  <rect class="fil1" x="1200" y="2200" width="200" height="200"/>
  <rect class="fil1" x="800" y="2200" width="200" height="200"/>
  <rect class="fil1" x="600" y="2000" width="200" height="200"/>
  <rect class="fil1" x="1000" y="2000" width="200" height="200"/>
  <rect class="fil1" x="3000" y="2000" width="200" height="200"/>
  <rect class="fil1" x="3800" y="2000" width="200" height="200"/>
  <rect class="fil1" x="4000" y="1800" width="200" height="200"/>
  <rect class="fil1" x="3600" y="1800" width="200" height="200"/>
  <rect class="fil1" x="3200" y="1800" width="200" height="200"/>
  <rect class="fil1" x="2800" y="1800" width="200" height="200"/>
  <rect class="fil1" x="2400" y="1800" width="200" height="200"/>
  <rect class="fil1" x="2000" y="1800" width="200" height="200"/>
  <rect class="fil1" x="1600" y="1800" width="200" height="200"/>
  <rect class="fil1" x="1200" y="1800" width="200" height="200"/>
  <rect class="fil1" x="800" y="1800" width="200" height="200"/>
  <rect class="fil1" x="200" y="1600" width="200" height="200"/>
  <rect class="fil1" x="1400" y="1600" width="200" height="200"/>
  <rect class="fil1" x="1800" y="1600" width="200" height="200"/>
  <rect class="fil1" x="3400" y="1600" width="200" height="200"/>
  <rect class="fil1" x="3600" y="1400" width="200" height="200"/>
  <rect class="fil1" x="4000" y="1400" width="200" height="200"/>
  <rect class="fil1" x="2800" y="1400" width="200" height="200"/>
  <rect class="fil1" x="2400" y="1400" width="200" height="200"/>
  <rect class="fil1" x="2000" y="1400" width="200" height="200"/>
  <rect class="fil1" x="1200" y="1400" width="200" height="200"/>
  <rect class="fil1" x="800" y="1400" width="200" height="200"/>
  <rect class="fil1" x="400" y="1400" width="200" height="200"/>
  <rect class="fil1" x="600" y="1200" width="200" height="200"/>
  <rect class="fil1" x="1000" y="1200" width="200" height="200"/>
  <rect class="fil1" x="1400" y="1200" width="200" height="200"/>
  <rect class="fil1" x="1800" y="1200" width="200" height="200"/>
  <rect class="fil1" x="2200" y="1200" width="200" height="200"/>
  <rect class="fil1" x="3400" y="1200" width="200" height="200"/>
  <rect class="fil1" x="4000" y="1000" width="200" height="200"/>
  <rect class="fil1" x="2800" y="1000" width="200" height="200"/>
  <rect class="fil1" x="2400" y="1000" width="200" height="200"/>
  <rect class="fil1" x="2000" y="1000" width="200" height="200"/>
  <rect class="fil1" x="800" y="1000" width="200" height="200"/>
  <rect class="fil1" x="1000" y="800" width="200" height="200"/>
  <rect class="fil1" x="1400" y="800" width="200" height="200"/>
  <rect class="fil1" x="2600" y="800" width="200" height="200"/>
  <rect class="fil1" x="3000" y="800" width="200" height="200"/>
  <rect class="fil1" x="3400" y="800" width="200" height="200"/>
  <rect class="fil1" x="3800" y="800" width="200" height="200"/>
  <rect class="fil1" x="3600" y="600" width="200" height="200"/>
  <rect class="fil1" x="2800" y="600" width="200" height="200"/>
  <rect class="fil1" x="2000" y="600" width="200" height="200"/>
  <rect class="fil1" x="1600" y="600" width="200" height="200"/>
  <rect class="fil1" x="1200" y="600" width="200" height="200"/>
  <rect class="fil1" x="800" y="600" width="200" height="200"/>
  <rect class="fil1" x="400" y="600" width="200" height="200"/>
  <rect class="fil1" x="600" y="400" width="200" height="200"/>
  <rect class="fil1" x="1000" y="400" width="200" height="200"/>
  <rect class="fil1" x="1800" y="400" width="200" height="200"/>
  <rect class="fil1" x="2200" y="400" width="200" height="200"/>
  <rect class="fil1" x="2600" y="400" width="200" height="200"/>
  <rect class="fil1" x="3400" y="400" width="200" height="200"/>
  <rect class="fil1" x="3600" y="200" width="200" height="200"/>
  <rect class="fil1" x="3200" y="200" width="200" height="200"/>
  <rect class="fil1" x="2400" y="200" width="200" height="200"/>
  <rect class="fil1" x="1200" y="200" width="200" height="200"/>
  <rect class="fil1" x="400" y="200" width="200" height="200"/>
  <rect class="fil1" x="200" y="800" width="200" height="200"/>
  <rect class="fil1" x="2800" y="3000" width="200" height="200"/>
  <rect class="fil1" x="1200" y="3400" width="200" height="200"/>
  <rect class="fil1" x="1200" y="3000" width="200" height="200"/>
  <rect class="fil1" x="3600" y="3000" width="200" height="200"/>
  <rect class="fil1" x="2000" y="3000" width="200" height="200"/>
  <rect class="fil1" x="1400" y="2800" width="200" height="200"/>
  <rect class="fil1" x="200" y="2800" width="200" height="200"/>
  <rect class="fil1" x="400" y="1800" width="200" height="200"/>
  <rect class="fil1" x="200" y="1200" width="200" height="200"/>
  <rect class="fil1" x="1200" y="1000" width="200" height="200"/>
  <rect class="fil1" x="1600" y="200" width="200" height="200"/>
  <rect class="fil1" x="1800" y="800" width="200" height="200"/>
  <rect class="fil1" x="1800" y="2000" width="200" height="200"/>
  <rect class="fil1" x="2200" y="2000" width="200" height="200"/>
  <rect class="fil1" x="2600" y="2400" width="200" height="200"/>
  <rect class="fil1" x="2600" y="1600" width="200" height="200"/>
  <rect class="fil1" x="3200" y="1000" width="200" height="200"/>
  <rect class="fil1" x="4000" y="200" width="200" height="200"/>
  <rect class="fil1" x="3800" y="1600" width="200" height="200"/>
  <rect class="fil1" x="3800" y="400" width="200" height="200"/>
  <rect class="fil1" x="3000" y="400" width="200" height="200"/>
  <rect class="fil1" x="3200" y="600" width="200" height="200"/>
  <rect class="fil1" x="1400" y="400" width="200" height="200"/>
  <rect class="fil1" x="800" y="200" width="200" height="200"/>
  <rect class="fil1" x="600" y="800" width="200" height="200"/>
  <rect class="fil1" x="1600" y="1000" width="200" height="200"/>
  <rect class="fil1" x="2200" y="800" width="200" height="200"/>
  <rect class="fil1" x="3000" y="1200" width="200" height="200"/>
  <rect class="fil1" x="3200" y="1400" width="200" height="200"/>
  <rect class="fil1" x="3600" y="1000" width="200" height="200"/>
  <rect class="fil1" x="3800" y="1200" width="200" height="200"/>
  <rect class="fil1" x="2200" y="1600" width="200" height="200"/>
  <rect class="fil1" x="1000" y="1600" width="200" height="200"/>
  <rect class="fil1" x="400" y="2200" width="200" height="200"/>
  <rect class="fil1" x="1800" y="2400" width="200" height="200"/>
  <rect class="fil1" x="2600" y="2000" width="200" height="200"/>
  <rect class="fil1" x="3400" y="2000" width="200" height="200"/>
  <rect class="fil1" x="2800" y="2600" width="200" height="200"/>
  <rect class="fil1" x="3600" y="2600" width="200" height="200"/>
  <rect class="fil1" x="4000" y="2600" width="200" height="200"/>
  <rect class="fil1" x="2400" y="3000" width="200" height="200"/>
  <rect class="fil1" x="1000" y="3200" width="200" height="200"/>
  <rect class="fil1" x="800" y="3400" width="200" height="200"/>
  <rect class="fil1" x="800" y="3000" width="200" height="200"/>
  <rect class="fil1" x="3200" y="3000" width="200" height="200"/>
  <rect class="fil1" x="1000" y="3600" width="200" height="200"/>
  <rect class="fil1" x="3600" y="3400" width="200" height="200"/>
  <rect class="fil1" x="3800" y="3600" width="200" height="200"/>
  <rect class="fil1" x="2000" y="3800" width="200" height="200"/>
  <rect class="fil1" x="2200" y="3200" width="200" height="200"/>
  <rect class="fil1" x="1400" y="3200" width="200" height="200"/>
  <rect class="fil1" x="600" y="3200" width="200" height="200"/>
  <rect class="fil1" x="3200" y="3800" width="200" height="200"/>
  <rect class="fil1" x="3400" y="3600" width="200" height="200"/>
  <rect class="fil1" x="3800" y="3200" width="200" height="200"/>
 </g>
</svg>
