<?xml version="1.0" encoding="UTF-8"?>
<!DOCTYPE svg PUBLIC "-//W3C//DTD SVG 1.1//EN" "http://www.w3.org/Graphics/SVG/1.1/DTD/svg11.dtd">
<!-- Creator: CorelDRAW X7 -->
<svg xmlns="http://www.w3.org/2000/svg" xml:space="preserve" version="1.1" style="shape-rendering:geometricPrecision; text-rendering:geometricPrecision; image-rendering:optimizeQuality; fill-rule:evenodd; clip-rule:evenodd"
viewBox="0 0 4400 4400"
 xmlns:xlink="http://www.w3.org/1999/xlink">
 <defs>
  <style type="text/css">
   <![CDATA[
    .fil0 {fill:#D0D0D0}
   ]]>
  </style>
 </defs>
 <g id="Слой_x0020_1">
  <metadata id="CorelCorpID_0Corel-Layer"/>
  <path class="fil0" d="M200 3400l0 200 4000 0 0 -200 200 0 0 1000c-1467,0 -2933,0 -4400,0l0 -1000 200 0zm400 -2200l400 0 0 200 200 0 0 200 200 0 0 200 400 0 0 200 200 0 0 200 -600 0 0 200 -200 0 0 200 2200 0 0 -200 -200 0 0 -200 -600 0 0 -200 200 0 0 -200 400 0 0 -200 0 -200 200 0 0 200 400 0 0 -600 200 0 0 -200 0 -600 -1200 0 0 -200 -1200 0 0 200 -1200 0 0 600 0 200 200 0 0 200zm2800 -200l0 200 -200 0 0 -200 200 0z"/>
 </g>
</svg>
