<?xml version="1.0" encoding="UTF-8"?>
<!DOCTYPE svg PUBLIC "-//W3C//DTD SVG 1.1//EN" "http://www.w3.org/Graphics/SVG/1.1/DTD/svg11.dtd">
<!-- Creator: CorelDRAW X7 -->
<svg xmlns="http://www.w3.org/2000/svg" xml:space="preserve" version="1.1" style="shape-rendering:geometricPrecision; text-rendering:geometricPrecision; image-rendering:optimizeQuality; fill-rule:evenodd; clip-rule:evenodd"
viewBox="0 0 4400 4400"
 xmlns:xlink="http://www.w3.org/1999/xlink">
 <defs>
  <style type="text/css">
   <![CDATA[
    .fil1 {fill:none}
    .fil0 {fill:#D0D0D0}
   ]]>
  </style>
 </defs>
 <g id="Слой_x0020_1">
  <metadata id="CorelCorpID_0Corel-Layer"/>
  <polygon class="fil0" points="400,0 800,0 800,200 1000,200 1000,1000 1100,1000 1100,200 1300,200 1300,1000 1400,1000 1400,200 1600,200 1600,1000 1700,1000 1700,200 1900,200 1900,1000 2000,1000 2000,200 2200,200 2200,1000 2300,1000 2300,200 2500,200 2500,1000 2600,1000 2600,200 2800,200 2800,1000 2900,1000 2900,200 3100,200 3100,1000 3200,1000 3200,200 3400,200 3400,1000 3500,1000 3500,200 3600,200 3600,0 4000,0 4000,4400 3600,4400 3600,4200 3500,4200 3500,3400 3400,3400 3400,4200 3200,4200 3200,3400 3100,3400 3100,4200 2900,4200 2900,3400 2800,3400 2800,4200 2600,4200 2600,3400 2500,3400 2500,4200 2300,4200 2300,3400 2200,3400 2200,4200 2000,4200 2000,3400 1900,3400 1900,4200 1700,4200 1700,3400 1600,3400 1600,4200 1400,4200 1400,3400 1300,3400 1300,4200 1100,4200 1100,3400 1000,3400 1000,4200 800,4200 800,4400 400,4400 "/>
  <rect class="fil1" width="4400" height="4400"/>
 </g>
</svg>
