<?xml version="1.0" encoding="UTF-8"?>
<!DOCTYPE svg PUBLIC "-//W3C//DTD SVG 1.1//EN" "http://www.w3.org/Graphics/SVG/1.1/DTD/svg11.dtd">
<!-- Creator: CorelDRAW X7 -->
<svg xmlns="http://www.w3.org/2000/svg" xml:space="preserve" version="1.1" style="shape-rendering:geometricPrecision; text-rendering:geometricPrecision; image-rendering:optimizeQuality; fill-rule:evenodd; clip-rule:evenodd"
viewBox="0 0 4400 4420"
 xmlns:xlink="http://www.w3.org/1999/xlink">
 <defs>
  <style type="text/css">
   <![CDATA[
    .str0 {stroke:#373435;stroke-width:20}
    .fil3 {fill:none}
    .fil0 {fill:black}
    .fil2 {fill:#9E9E9E}
    .fil1 {fill:#D1685F}
   ]]>
  </style>
 </defs>
 <g id="Слой_x0020_1">
  <metadata id="CorelCorpID_0Corel-Layer"/>
  <path class="fil0 str0" d="M400 10l400 0 0 4400 -400 0 0 -4400zm3200 0l400 0 0 4400 -400 0 0 -4400z"/>
  <path class="fil1" d="M3600 210l-100 0 0 4000 100 0 0 -4000zm-200 0l-200 0 0 4000 200 0 0 -4000zm-300 0l-200 0 0 4000 200 0 0 -4000zm-300 0l-200 0 0 4000 200 0 0 -4000zm-300 0l-200 0 0 4000 200 0 0 -4000zm-300 0l-200 0 0 4000 200 0 0 -4000zm-300 0l-200 0 0 4000 200 0 0 -4000zm-900 0l-200 0 0 4000 200 0 0 -4000zm300 0l-200 0 0 4000 200 0 0 -4000zm300 0l-200 0 0 4000 200 0 0 -4000z"/>
  <path class="fil2" d="M1000 1010l100 0 0 2400 -100 0 0 -2400zm300 0l100 0 0 2400 -100 0 0 -2400zm300 0l100 0 0 2400 -100 0 0 -2400zm300 0l100 0 0 2400 -100 0 0 -2400zm300 0l100 0 0 2400 -100 0 0 -2400zm300 0l100 0 0 2400 -100 0 0 -2400zm300 0l100 0 0 2400 -100 0 0 -2400zm300 0l100 0 0 2400 -100 0 0 -2400zm300 0l100 0 0 2400 -100 0 0 -2400z"/>
  <rect class="fil3" y="10" width="4400" height="4400"/>
 </g>
</svg>
