<?xml version="1.0" encoding="UTF-8"?>
<!DOCTYPE svg PUBLIC "-//W3C//DTD SVG 1.1//EN" "http://www.w3.org/Graphics/SVG/1.1/DTD/svg11.dtd">
<!-- Creator: CorelDRAW X7 -->
<svg xmlns="http://www.w3.org/2000/svg" xml:space="preserve" version="1.1" style="shape-rendering:geometricPrecision; text-rendering:geometricPrecision; image-rendering:optimizeQuality; fill-rule:evenodd; clip-rule:evenodd"
viewBox="0 0 4400 4400"
 xmlns:xlink="http://www.w3.org/1999/xlink">
 <defs>
  <style type="text/css">
   <![CDATA[
    .fil1 {fill:#5FC8D1}
    .fil0 {fill:#9E9E9E}
    .fil2 {fill:#E0E0E0}
   ]]>
  </style>
 </defs>
 <g id="Слой_x0020_1">
  <metadata id="CorelCorpID_0Corel-Layer"/>
  <path class="fil0" d="M200 3400l0 800 4000 0 0 -800 200 0 0 1000c-1467,0 -2933,0 -4400,0l0 -1000 200 0z"/>
  <rect class="fil1" x="200" y="3600" width="4000" height="600"/>
  <polygon class="fil0" points="400,800 4000,800 4000,200 2800,200 2800,0 1600,0 1600,200 400,200 "/>
  <rect class="fil2" x="400" y="800" width="3600" height="200"/>
  <polygon class="fil1" points="600,1200 1000,1200 1000,1400 1200,1400 1200,1600 1400,1600 1400,1800 1800,1800 1800,2000 2000,2000 2000,2200 1400,2200 1400,2400 1200,2400 1200,2600 3400,2600 3400,2400 3200,2400 3200,2200 2600,2200 2600,2000 2800,2000 2800,1800 3200,1800 3200,1600 3200,1400 3400,1400 3400,1600 3800,1600 3800,1000 3400,1000 3400,1200 3200,1200 3200,1000 600,1000 "/>
 </g>
</svg>
